<?xml version="1.0" standalone="no"?>
<!DOCTYPE svg PUBLIC "-//W3C//DTD SVG 1.1//EN" "http://www.w3.org/Graphics/SVG/1.1/DTD/svg11.dtd" >
<svg xmlns="http://www.w3.org/2000/svg">
<metadata>Generated by IcoMoon</metadata>
<defs>
<font id="ui8" horiz-adv-x="512">
<font-face units-per-em="512" ascent="480" descent="-32" />
<missing-glyph horiz-adv-x="512" />
<glyph unicode="&#x20;" d="" horiz-adv-x="256" />
<glyph unicode="&#xe600;" d="M422.235 110.881c-21.933-84.183-86.231-142.98-156.325-142.98h-0.017c-10.752 0-21.454 1.454-31.777 4.294-6.706 1.85-13.246 4.31-19.588 7.317-6.342-3.006-12.882-5.467-19.571-7.317-10.339-2.841-21.041-4.294-31.793-4.294-70.111 0-134.409 58.798-156.341 142.98-25.468 97.775 17.227 194.791 95.166 216.262 37.343 10.273 77.857 1.651 112.541-23.536 34.684 25.203 75.181 33.808 112.541 23.536 77.94-21.471 120.634-118.487 95.166-216.262v0zM318.299 295.3c-30.736 8.457-64.298-0.776-93.069-25.269-6.161-5.268-15.244-5.268-21.405 0-28.755 24.493-62.315 33.726-93.069 25.269-60.63-16.698-92.903-95.695-71.961-176.095 17.854-68.525 70.16-118.272 124.366-118.272 7.779 0 15.525 1.057 23.007 3.105 6.937 1.916 13.725 4.757 20.166 8.44 2.543 1.454 5.368 2.18 8.192 2.18s5.649-0.726 8.192-2.18c6.441-3.683 13.23-6.524 20.183-8.44 7.465-2.048 15.212-3.105 22.99-3.105h0.017c54.206 0 106.496 49.747 124.35 118.272 20.942 80.4-11.33 159.397-71.961 176.095v0zM211.308 348.102c-4.839 0-9.678 0.347-14.484 1.008-7.333 1.024-13.065 6.771-14.089 14.071-4.509 32.372 5.995 64.017 28.771 86.809 22.611 22.594 54.767 33.214 86.793 28.771 7.317-1.024 13.065-6.771 14.089-14.088 4.509-32.355-5.995-64-28.771-86.793-19.225-19.209-44.891-29.779-72.308-29.779v0zM234.859 426.637c-12.222-12.238-19.208-28.292-20.018-45.403 17.26 0.826 33.263 7.862 45.419 20.001 12.222 12.238 19.209 28.292 20.017 45.403-17.26-0.826-33.263-7.861-45.419-20.001v0z" horiz-adv-x="430" />
<glyph unicode="&#xe601;" d="M422.323 224.077h-64v-217.51c0-21.159-17.229-38.375-38.4-38.375h-204.8c-21.184 0-38.4 17.216-38.4 38.375v217.511h-64c-7.079 0-12.8 5.734-12.8 12.8s5.721 12.787 12.8 12.787h76.8c28.224 0 51.2 22.963 51.2 51.187v38.375c0 21.171 17.216 38.387 38.4 38.387h76.8c21.171 0 38.4-17.216 38.4-38.387v-38.375c0-28.224 22.963-51.187 51.2-51.187h76.8c7.065 0 12.8-5.721 12.8-12.787s-5.735-12.8-12.8-12.8v0zM332.723 225.152c-36.288 6.106-64 37.721-64 75.699v38.375c0 7.065-5.747 12.8-12.8 12.8h-76.8c-7.065 0-12.8-5.735-12.8-12.8v-38.375c0-37.977-27.725-69.594-64-75.699v-218.585c0-7.053 5.734-12.787 12.8-12.787h204.8c7.053 0 12.8 5.735 12.8 12.787v218.585zM255.923 32.154h-76.8c-21.184 0-38.4 17.229-38.4 38.387v89.561c0 7.065 5.721 12.8 12.8 12.8h128c7.065 0 12.8-5.735 12.8-12.8v-89.562c0-21.159-17.229-38.387-38.4-38.387v0zM268.723 147.315h-102.4v-76.774c0-7.053 5.734-12.787 12.8-12.787h76.8c7.053 0 12.8 5.735 12.8 12.787v76.774zM281.523 390.413c-7.079 0-12.8 5.721-12.8 12.787 0 28.224-22.976 51.187-51.2 51.187-28.237 0-51.2-22.963-51.2-51.187 0-7.065-5.734-12.787-12.8-12.787-7.078 0-12.8 5.721-12.8 12.787 0 42.343 34.445 76.775 76.8 76.775 42.342 0 76.8-34.432 76.8-76.775 0-7.065-5.735-12.787-12.8-12.787v0z" horiz-adv-x="435" />
<glyph unicode="&#xe602;" d="M244.48 23.708c0.389-0.045 0.768-0.055 1.157-0.055 5.632 0 10.462 4.263 11.053 9.984 5.666 54.94 18.921 111.171 31.733 165.543 12.978 55.073 26.413 112.005 32.222 168.37 0.623 6.122-3.817 11.587-9.94 12.221-6.144 0.668-11.575-3.817-12.21-9.94-5.666-54.94-18.911-111.159-31.733-165.543-12.978-55.063-26.401-111.995-32.212-168.37-0.635-6.111 3.806-11.575 9.928-12.21v0zM367.238 435.478h-75.086c-6.144 0-11.13-4.986-11.13-11.13s4.986-11.131 11.13-11.131h63.811c-1.659-69.376-18.365-140.265-34.549-208.929-16.484-69.966-33.514-142.192-35.15-214.027h-163.895c-6.155 0-11.13-4.986-11.13-11.13s4.975-11.13 11.13-11.13h174.904c6.144 0 11.13 4.986 11.13 11.13 0 72.904 17.63 147.712 34.683 220.048 17.341 73.584 35.284 149.671 35.284 225.168 0 6.144-4.986 11.13-11.13 11.13v0zM133.81 424.292c-6.066 0.723-11.587-3.807-12.21-9.94-5.665-54.929-18.922-111.16-31.733-165.543-12.978-55.063-26.413-112.005-32.212-168.37-0.635-6.111 3.806-11.575 9.928-12.21 0.379-0.045 0.768-0.055 1.147-0.055 5.643 0 10.474 4.263 11.064 9.984 5.665 54.94 18.921 111.171 31.733 165.543 12.978 55.073 26.401 112.005 32.211 168.37 0.635 6.121-3.806 11.587-9.928 12.221v0zM199.401 424.292c-6.144 0.679-11.587-3.818-12.21-9.94-5.666-54.929-18.91-111.16-31.733-165.543-12.978-55.063-26.401-112.005-32.212-168.37-0.635-6.111 3.806-11.575 9.929-12.21 0.389-0.045 0.768-0.055 1.157-0.055 5.632 0 10.463 4.263 11.053 9.984 5.666 54.94 18.922 111.171 31.733 165.543 12.978 55.073 26.412 112.005 32.212 168.37 0.635 6.121-3.806 11.587-9.929 12.221v0zM197.097 23.652c0 72.904 17.631 147.712 34.683 220.048 17.341 73.584 35.283 149.671 35.283 225.168 0 6.144-4.986 11.13-11.131 11.13h-174.915c-6.144 0-11.13-4.986-11.13-11.13 0-72.916-17.63-147.723-34.682-220.060-17.341-73.572-35.273-149.66-35.273-225.158 0-6.144 4.976-11.13 11.13-11.13h174.904c6.144 0 11.131 4.986 11.131 11.13v0zM22.328 34.783c1.659 69.365 18.365 140.255 34.549 208.918 16.484 69.966 33.514 142.202 35.15 214.038h152.631c-1.659-69.376-18.365-140.265-34.549-208.929-16.484-69.966-33.513-142.191-35.15-214.027h-152.631z" horiz-adv-x="379" />
<glyph unicode="&#xe603;" d="M589.048 172.829c-33.28-114.702-138.913-196.813-262.875-204.332-6.598-0.395-13.078-0.6-19.442-0.6-61.601 0-117.351 17.656-175.47 55.56-23.070 15.038-33.88 40.974-26.873 64.526 6.656 22.382 26.799 36.293 52.56 36.293 10.796-0.205 19.661-0.293 27.487-0.293 95.042 0 192.907 45.276 237.992 110.109 29.652 42.627 35.094 90.024 16.194 140.903-7.666 20.612-35.036 34.786-46.461 39.936-6.904 3.116-11.952 9.085-13.868 16.399-1.916 7.344-0.424 15.082 4.096 21.197l12.668 17.203c6.92 9.421 20.29 12.8 30.822 7.768 36.894-17.642 218.141-115.2 163.167-304.67v0zM416.505 449.558l-7.534-10.226c18.724-9.099 46.885-26.77 57.066-54.169 22.104-59.509 15.331-117.526-19.603-167.746-50.22-72.221-157.959-122.661-261.998-122.661-8.002 0-17.072 0.088-26.654 0.278h-0.030c-13.502 0-22.425-5.603-25.337-15.375-2.546-8.529-0.175-21.957 14.819-31.73 53.145-34.655 103.834-50.805 159.495-50.805 5.779 0 11.673 0.175 17.671 0.541 111.66 6.773 206.731 80.442 236.559 183.296 11.879 40.872 36.264 180.458-144.457 268.595v0zM411.341 377.264c7.987-1.141 13.546-8.529 12.419-16.516-7.358-51.99-35.606-92.13-81.701-116.093-69.969-36.352-177.679-31.773-261.896 11.161-6.275 3.203-13.341 6.905-20.773 10.855-9.86 5.267-19.295 4.739-25.235-1.405-4.739-4.9-7.446-14.248-0.79-25.731 21.139-36.513 45.012-63.224 75.147-84.041 6.641-4.594 8.294-13.692 3.716-20.334-2.838-4.111-7.402-6.305-12.040-6.305-2.867 0-5.763 0.834-8.309 2.589-33.353 23.055-60.767 53.613-83.822 93.447-12.2 21.065-10.196 44.895 5.076 60.679 15.068 15.609 38.634 18.301 60.007 6.89 7.27-3.876 14.175-7.475 20.305-10.606 75.103-38.297 173.992-43.037 235.125-11.264 37.888 19.69 60.182 51.405 66.238 94.252 1.127 7.987 8.631 13.517 16.531 12.42v0z" horiz-adv-x="600" />
<glyph unicode="&#xe604;" d="M1447.082 81.778c-35.328 0-69.376 12.544-95.943 35.328-11.918 10.212-13.284 28.188-3.043 40.106 10.211 11.918 28.217 13.312 40.107 3.072 16.27-13.938 37.149-21.618 58.88-21.618 48.925 0 88.718 38.286 88.718 85.305 0 45.483-41.444 85.362-88.718 85.362-37.518 0-71.139-22.869-83.655-56.889-12.487-34.020-47.075-56.889-86.016-56.889h-113.123c-1.963-44.032-7.424-88.946-18.631-134.372-10.126-38.173-46.877-76.8-80.327-84.878-24.519-5.433-47.303-8.050-70.087-8.050-22.813 0-45.568 2.617-69.575 7.964-27.875 6.685-57.429 33.991-72.732 64.426-15.389-30.578-44.743-57.742-72.106-64.341-24.548-5.433-47.332-8.050-70.115-8.050s-45.539 2.617-69.575 7.964c-27.875 6.685-57.401 33.991-72.704 64.427-15.417-30.578-44.771-57.742-72.163-64.341-24.49-5.433-47.246-8.050-70.058-8.050s-45.568 2.617-69.575 7.964c-33.906 8.135-70.685 46.762-80.697 84.452-11.321 45.853-16.81 90.823-18.774 134.884h-229.262c-15.73 0-28.445 12.743-28.445 28.445s12.714 28.445 28.445 28.445h229.262c1.962 44.032 7.424 88.918 18.631 134.371 10.154 38.173 46.905 76.829 80.384 84.85 48.953 10.923 91.591 10.809 139.606 0.114 27.904-6.684 57.429-34.019 72.732-64.426 15.389 30.578 44.743 57.742 72.106 64.313 49.067 10.923 91.62 10.809 139.691 0.114 27.875-6.685 57.401-34.019 72.704-64.427 15.389 30.578 44.743 57.742 72.163 64.313 48.924 10.923 91.563 10.809 139.662 0.114 33.963-8.163 70.685-46.791 80.697-84.48 11.293-45.824 16.782-90.794 18.745-134.855h113.123c14.962 0 28.359 8.050 32.626 19.598 20.65 56.32 75.747 94.151 137.045 94.18 78.934 0 145.607-65.138 145.607-142.25 0-78.393-65.309-142.194-145.607-142.194v0zM540.018 226.19c-0.142 47.673-6.286 97.053-18.602 147.001-5.206 19.427-27.363 40.505-38.428 43.178-19.456 4.323-38.173 6.486-56.775 6.486-18.574 0-37.319-2.162-57.23-6.599-10.61-2.56-32.768-23.637-38.087-43.577-12.317-49.92-18.546-99.783-18.574-147.826 0-0.285 0.086-0.569 0.086-0.853s-0.086-0.569-0.086-0.853c0.029-48.043 6.286-97.934 18.716-148.366 4.836-18.062 26.14-40.192 38.428-43.15 38.883-8.647 74.126-8.761 113.977 0.114 11.805 2.844 33.138 24.974 38.087 43.548 12.202 49.465 18.346 98.901 18.489 146.489 0 0.74-0.142 1.507-0.142 2.247 0 0.711 0.142 1.451 0.142 2.162v0zM767.488 416.37c-19.456 4.323-38.173 6.486-56.775 6.486-18.574 0-37.29-2.162-57.259-6.599-10.582-2.56-32.711-23.637-38.058-43.577-12.174-49.437-18.346-98.873-18.489-146.489 0.029-0.711 0.142-1.479 0.142-2.219 0-0.711-0.114-1.45-0.114-2.19 0.114-47.644 6.286-97.024 18.602-147.001 5.206-19.399 27.335-40.476 38.428-43.15 38.884-8.647 74.126-8.761 114.034 0.114 10.582 2.56 32.711 23.637 38.058 43.548 12.174 49.465 18.346 98.901 18.461 146.489 0 0.74-0.142 1.507-0.142 2.247 0 0.711 0.142 1.451 0.142 2.162-0.142 47.673-6.286 97.052-18.602 147.001-5.206 19.428-27.335 40.505-38.428 43.178v0zM1051.989 416.37c-19.456 4.323-38.173 6.486-56.746 6.486-18.602 0-37.319-2.162-57.23-6.599-10.638-2.56-32.768-23.637-38.115-43.577-12.174-49.437-18.346-98.873-18.461-146.489 0-0.711 0.142-1.479 0.142-2.219 0-0.711-0.142-1.45-0.142-2.19 0.142-47.644 6.286-97.024 18.602-147.001 4.836-18.062 26.14-40.192 38.428-43.15 38.912-8.647 74.126-8.761 114.034 0.114 10.61 2.56 32.768 23.609 38.030 43.548 12.316 49.949 18.574 99.811 18.602 147.854-0.028 0.284-0.085 0.569-0.085 0.853s0.057 0.569 0.057 0.853c0 48.043-6.258 97.934-18.688 148.338-5.149 19.428-27.306 40.505-38.428 43.179v0z" horiz-adv-x="1593" />
<glyph unicode="&#xe605;" d="M417.603 75.789c-7.451 0-13.474 6.036-13.474 13.474 0 7.451 6.022 13.474 13.474 13.474 22.286 0 40.421 18.135 40.421 40.421v80.842c0 22.299-18.135 40.421-40.421 40.421-7.451 0-13.474 6.036-13.474 13.474s6.022 13.474 13.474 13.474c37.133 0 67.368-30.221 67.368-67.368v-80.842c0-37.147-30.235-67.368-67.368-67.368v0zM323.288-32h-242.526c-37.147 0-67.368 30.235-67.368 67.368v269.474c0 7.438 6.023 13.474 13.474 13.474h350.316c7.438 0 13.474-6.036 13.474-13.474v-269.474c0-37.133-30.235-67.368-67.368-67.368v0zM363.709 291.369h-67.368v-67.369c0-7.438-6.036-13.474-13.474-13.474-7.451 0-13.474 6.036-13.474 13.474v67.368h-40.421v-121.263c0-7.438-6.036-13.474-13.474-13.474-7.451 0-13.474 6.036-13.474 13.474v121.263h-161.684v-256c0-22.286 18.122-40.421 40.421-40.421h242.526c22.286 0 40.421 18.135 40.421 40.421v256zM377.183 345.263c-7.451 0-13.474 6.036-13.474 13.473 0 29.723-24.172 53.894-53.894 53.894-9.122 0-18.055-2.465-26.57-7.329-3.341-1.913-7.37-2.291-11.022-1.065-3.638 1.239-6.589 3.988-8.084 7.546-10.536 25.061-34.938 41.27-62.113 41.27-27.19 0-51.59-16.209-62.127-41.27-1.495-3.557-4.447-6.305-8.084-7.546-3.638-1.226-7.666-0.849-11.022 1.065-8.516 4.864-17.448 7.329-26.556 7.329-29.737 0-53.895-24.172-53.895-53.894 0-7.438-6.036-13.473-13.474-13.473-7.451 0-13.473 6.036-13.473 13.473 0 44.585 36.258 80.842 80.842 80.842 9.284 0 18.378-1.644 27.177-4.905 16.937 27.918 47.266 45.326 80.613 45.326 33.334 0 63.663-17.408 80.599-45.326 8.798 3.261 17.893 4.905 27.19 4.905 44.571 0 80.842-36.257 80.842-80.842 0-7.438-6.036-13.473-13.474-13.473v0z" horiz-adv-x="485" />
<glyph unicode="&#xe606;" d="M449.112 425.772l-58.704-58.704c-9.86-106.569-35.87-198.32-71.241-253.996 34.582-5.793 61.089-35.723 61.089-71.928v-58.514c0-8.075-6.553-14.628-14.628-14.628h-263.315c-8.090 0-14.629 6.553-14.629 14.628v58.514c0 36.221 26.522 66.15 61.118 71.928-39.336 61.733-66.267 166.576-73.64 285.798l-31.364-15.682v-93.359c0-8.075-6.553-14.628-14.629-14.628-8.090 0-14.629 6.553-14.629 14.628v102.4c0 5.544 3.116 10.606 8.075 13.092l51.025 25.512c-0.351 11.425-0.585 22.923-0.585 34.538 0 8.075 6.539 14.628 14.629 14.628h351.086c8.075 0 14.628-6.553 14.628-14.628v-29.257c0-3.877-1.55-7.592-4.286-10.343v0zM116.941 41.143v-43.885h234.057v43.885c0 24.211-19.69 43.885-43.885 43.885h-146.286c-24.21 0-43.886-19.675-43.886-43.885v0zM424.141 450.743h-321.741c1.96-146.051 33.207-275.793 81.086-336.457h100.952c38.546 48.962 67.277 145.525 77.298 260.637 0.293 3.438 1.8 6.642 4.228 9.084l58.178 58.163v8.572zM263.226 245.943h-58.514c-8.089 0-14.629 6.554-14.629 14.629s6.539 14.629 14.629 14.629h58.514c8.075 0 14.628-6.554 14.628-14.629s-6.553-14.629-14.628-14.629v0zM263.226 304.457h-58.514c-8.089 0-14.629 6.553-14.629 14.629s6.539 14.628 14.629 14.628h58.514c8.075 0 14.628-6.553 14.628-14.628s-6.553-14.629-14.628-14.629v0zM263.226 362.971h-58.514c-8.089 0-14.629 6.553-14.629 14.629s6.539 14.628 14.629 14.628h58.514c8.075 0 14.628-6.553 14.628-14.628s-6.553-14.629-14.628-14.629v0zM233.97 70.4c16.15 0 29.257-13.092 29.257-29.257 0-16.15-13.107-29.257-29.257-29.257-16.165 0-29.257 13.107-29.257 29.257 0 16.164 13.093 29.257 29.257 29.257v0z" horiz-adv-x="454" />
<glyph unicode="&#xe607;" d="M323.471 374.503l-1.748-40.935c-5.445-50.813-35.478-93.384-80.359-114.688-14.648-6.955-23.252-21.591-21.879-37.276l11.988-137.703c1.673-19.418-4.907-38.774-18.083-53.123-13.162-14.373-31.894-22.603-51.4-22.603-19.494 0-38.225 8.229-51.388 22.591-13.174 14.361-19.755 33.717-18.082 53.123l12.001 137.84c1.361 15.647-7.206 30.27-21.828 37.238-44.769 21.329-74.715 63.875-80.109 113.801l-0.15 2.186-1.724 40.198c-3.522 25.775 3.934 51.95 20.555 71.905 17.383 20.867 42.846 32.843 69.844 32.843h142.036c26.998 0 52.462-11.976 69.857-32.843 16.746-20.118 24.202-46.554 20.467-72.554v0zM283.81 431.086c-12.637 15.16-31.095 23.851-50.663 23.851h-142.036c-19.556 0-38.026-8.692-50.651-23.851-12.226-14.698-17.67-34.017-14.935-53.023 0.050-0.412 0.1-0.837 0.113-1.249l1.835-41.871c4.408-40.735 29.096-75.863 65.986-93.446 24.089-11.489 38.213-35.802 35.953-61.939l-12.001-137.828c-1.099-12.637 3.022-24.738 11.589-34.091 8.591-9.353 20.292-14.498 32.993-14.498s24.413 5.145 33.006 14.498c8.566 9.353 12.688 21.466 11.589 34.091l-11.988 137.716c-2.236 25.775 12.25 50.688 36.065 61.989 36.976 17.533 61.702 52.686 66.173 94.020l1.798 41.372c2.847 20.243-2.598 39.574-14.823 54.26v0zM272.421 341.435c-2.76-23.127-13.724-43.532-30.958-58.293-2.286-1.973-5.22-3.035-8.23-3.035-0.662 0-1.323 0.050-1.998 0.163-3.684 0.575-6.906 2.735-8.779 5.882-6.594 11.002-28.21 22.853-60.079 22.853-31.744 0-53.361-11.801-60.017-22.778-1.91-3.122-5.132-5.27-8.791-5.832-3.746-0.575-7.418 0.5-10.228 2.909-17.084 14.723-27.96 35.066-30.645 57.282l-2.098 43.282c-1.886 11.026 1.311 22.59 9.141 31.806 7.905 9.254 19.481 14.561 31.769 14.561h142.036c12.288 0 23.864-5.308 31.744-14.548 7.668-9.004 10.914-20.268 9.166-31.807l-2.036-42.446zM246.084 400.091c-3.122 3.659-7.692 5.757-12.538 5.757h-142.036c-4.858 0-9.441-2.098-12.575-5.769-3.147-3.709-4.395-8.204-3.584-12.975l0.424-3.772 1.798-40.798c1.411-11.376 6.132-22.465 13.537-31.832 15.972 14.099 42.121 22.691 71.268 22.691 29.272 0 55.496-8.642 71.418-22.815 7.518 9.454 12.288 20.767 13.749 32.856l1.998 42.246c0.025 0.474 0.075 0.949 0.15 1.423 0.811 4.77-0.437 9.266-3.609 12.987v0z" horiz-adv-x="325" />
<glyph unicode="&#xe608;" d="M179.123-32h-128c-21.184 0-38.4 17.229-38.4 38.4v256c0 36.467 19.84 70.4 51.2 88.576v103.424c0 14.118 11.482 25.6 25.6 25.6h51.2c14.106 0 25.6-11.482 25.6-25.6v-103.424c31.347-18.176 51.2-52.109 51.2-88.576v-256c0-21.171-17.229-38.4-38.4-38.4v0zM89.523 454.4v-111.142c0-4.928-2.841-9.434-7.309-11.546-26.663-12.697-43.891-39.898-43.891-69.312v-256c0-7.053 5.734-12.8 12.8-12.8h128c7.053 0 12.8 5.747 12.8 12.8v256c0 29.414-17.242 56.615-43.904 69.312-4.467 2.112-7.296 6.618-7.296 11.546v111.142h-51.2z" horiz-adv-x="218" />
<glyph unicode="&#xe609;" d="M330.058 480c-164.137 0-330.322-34.039-330.322-99.097 0-227.675 148.183-412.903 330.322-412.903s330.322 185.228 330.322 412.903c0 65.057-166.185 99.097-330.322 99.097v0zM330.058 1.033c-151.37 0-276.612 145.375-294.896 332.586 57.509-34.172 176.722-51.811 294.896-51.811s237.386 17.639 294.895 51.811c-18.284-187.211-143.525-332.586-294.896-332.586v0zM330.058 314.839c-192.347 0-297.291 43.652-297.291 66.065s104.944 66.064 297.291 66.064c192.347 0 297.29-43.652 297.29-66.064s-104.943-66.065-297.291-66.065v0z" horiz-adv-x="661" />
<glyph unicode="&#xe60a;" d="M573.967 194.351v-179.635c0-25.662-20.884-46.546-46.545-46.546h-434.424c-25.677 0-46.545 20.884-46.545 46.546v179.635c-30.488 29.122-46.545 63.426-46.545 99.592 0 94.084 111.352 170.635 248.243 170.635h124.121c136.875 0 248.243-76.552 248.243-170.635 0-36.166-16.073-70.454-46.545-99.592v0zM248.149 433.548c-119.777 0-217.212-62.635-217.212-139.606 0-29.060 14.29-57.142 41.348-81.207 3.289-2.948 5.198-7.168 5.198-11.59v-186.43c0-8.549 6.951-15.515 15.515-15.515h310.303c8.549 0 15.515 6.966 15.515 15.515v186.43c0 4.422 1.893 8.642 5.197 11.59 27.043 24.079 41.348 52.147 41.348 81.207 0 76.971-97.451 139.606-217.212 139.606v0zM391.649 432.911c63.271-30.952 104.743-81.656 104.743-138.969 0-36.166-16.074-70.454-46.546-99.592v-179.635c0-5.462-1.132-10.644-2.87-15.515h80.446c8.549 0 15.515 6.966 15.515 15.515v170.635h-31.031c-8.58 0-15.515 6.951-15.515 15.515s6.935 15.515 15.515 15.515h39.998c24.499 23.257 37.577 49.943 37.577 77.56 0 72.766-87.118 132.639-197.833 138.969v0zM302.452 293.942c-12.862 0-23.272 10.411-23.272 23.257 0 12.862 10.411 23.272 23.272 23.272 12.846 0 23.272-10.41 23.272-23.272 0-12.846-10.426-23.257-23.272-23.257v0zM310.21 146.564c0-12.846-10.426-23.257-23.272-23.257-12.862 0-23.272 10.411-23.272 23.257 0 12.862 10.411 23.272 23.272 23.272 12.846 0 23.272-10.411 23.272-23.272v0zM162.816 216.382c-12.862 0-23.273 10.411-23.273 23.257s10.411 23.273 23.273 23.273c12.846 0 23.273-10.426 23.273-23.273s-10.426-23.257-23.273-23.257v0z" horiz-adv-x="621" />
<glyph unicode="&#xe60b;" d="M635.146 131.84h-1.433c0.676-3.298 1.044-6.717 1.044-10.24 0-28.221-22.979-51.2-51.2-51.2h-512c-28.242 0-51.2 22.978-51.2 51.2 0 3.522 0.348 6.942 1.024 10.24h-1.024c-11.325 0-20.48 9.175-20.48 20.48 0 180.695 146.985 327.68 327.68 327.68 179.262 0 325.366-144.712 327.659-323.44 0.266-1.372 0.409-2.786 0.409-4.24 0-11.305-9.154-20.48-20.48-20.48v0zM61.317 121.6c0-5.652 4.587-10.24 10.24-10.24h512c5.632 0 10.24 4.587 10.24 10.24s-4.608 10.24-10.24 10.24h-512c-5.653 0-10.24-4.587-10.24-10.24v0zM327.557 439.040c-151.204 0-275.476-117.658-286.003-266.24h571.986c-10.527 148.583-134.799 266.24-285.983 266.24v0zM501.637 234.24c-16.978 0-30.72 13.762-30.72 30.72 0 16.978 13.742 30.72 30.72 30.72 16.957 0 30.72-13.742 30.72-30.72 0-16.958-13.763-30.72-30.72-30.72v0zM399.237 316.16c-16.978 0-30.72 13.763-30.72 30.72 0 16.978 13.742 30.72 30.72 30.72 16.957 0 30.72-13.742 30.72-30.72 0-16.957-13.762-30.72-30.72-30.72v0zM276.357 234.24c-16.978 0-30.72 13.762-30.72 30.72 0 16.978 13.742 30.72 30.72 30.72 16.957 0 30.72-13.742 30.72-30.72 0-16.958-13.762-30.72-30.72-30.72v0zM20.357 70.4c11.305 0 20.48-9.175 20.48-20.48 0-22.589 18.37-40.96 40.96-40.96h491.52c22.569 0 40.96 18.37 40.96 40.96 0 11.305 9.154 20.48 20.48 20.48 11.305 0 20.48-9.175 20.48-20.48 0-45.159-36.741-81.92-81.92-81.92h-491.52c-45.2 0-81.92 36.762-81.92 81.92 0 11.305 9.155 20.48 20.48 20.48v0z" horiz-adv-x="656" />
<glyph unicode="&#xe60c;" d="M155.386 197.364c6.584-1.226 12.728 3.132 13.907 9.597 1.179 6.478-3.143 12.693-9.632 13.872-46.532 8.394-68.418-25.409-73.442-44.472-1.679-6.37 2.12-12.896 8.502-14.574 1.036-0.262 2.048-0.393 3.060-0.393 5.299 0 10.133 3.548 11.55 8.894 0.369 1.381 9.264 33.745 46.056 27.077v0zM195.512 185.053c-46.556 8.418-68.418-25.397-73.442-44.472-1.679-6.37 2.12-12.884 8.502-14.562 1.036-0.274 2.048-0.393 3.060-0.393 5.298 0 10.133 3.536 11.55 8.894 0.369 1.381 9.299 33.768 46.056 27.065 6.572-1.214 12.728 3.144 13.907 9.609 1.179 6.478-3.143 12.681-9.632 13.86v0zM401.575 154.332l-183.57 186.464-111.473 124.464c-8.454 9.442-20.706 14.86-33.637 14.86-12.812 0-24.957-5.085-34.185-14.324-9.454-9.442-14.657-22.362-14.3-35.459 0.334-12.574 5.608-24.040 14.836-32.292l124.69-111.568c6.668-5.966 15.336-9.24 24.421-9.24 10.323 0 20.099 4.084 27.541 11.514 3.524 3.524 6.239 7.573 8.144 11.871l148.087-150.421c-29.434 3.512-46.938 21.48-68.382 43.77-20.385 21.207-43.52 45.246-81.694 61.833-19.516 8.466-41.46 12.943-63.476 12.943-63.691 0-118.653-34.721-143.431-90.6-22.468-50.64-19.933-101.364 7.12-142.824 26.696-40.925 75.323-67.369 123.88-67.369 42.841 0 80.087 19.706 104.864 55.498 21.695 31.327 15.336 65.5 5.477 89.6 16.241-5.406 37.067-10.288 59.285-10.288h0.012c29.505 0 55.177 8.573 76.288 25.481 0.202 0.166 20.409 14.276 9.502 26.088v0zM198.965 305.599c-2.905-2.917-6.668-4.512-10.609-4.512-2.262 0-5.548 0.536-8.454 3.144l-124.69 111.568c-4.298 3.834-6.752 9.24-6.918 15.205-0.178 6.572 2.489 13.11 7.334 17.956 4.715 4.715 10.847 7.311 17.265 7.311 6.216 0 11.835-2.453 15.825-6.906l111.616-124.63c4.715-5.263 4.108-13.669-1.369-19.135v0zM315.785 126.613h-0.012c-42.175 0-62.642 17.087-84.576 22.695-45.663 11.669-68.251-25.457-73.275-44.496-1.679-6.37 2.119-12.896 8.513-14.574 1.024-0.262 2.036-0.381 3.048-0.381 5.298 0 10.133 3.536 11.55 8.882 0.357 1.322 18.135 39.365 41.412 27.648 13.645-6.87 32.613-55.13 8.906-89.385-20.183-29.149-50.45-45.199-85.207-45.199-40.686 0-81.456 22.195-103.853 56.534-22.492 34.471-24.373 77.146-5.298 120.154 20.896 47.139 67.489 76.407 121.582 76.407 18.766 0 37.411-3.786 53.927-10.966 33.804-14.682 54.237-35.923 74.014-56.475 18.289-19.027 35.864-37.293 61.262-46.199-9.871-3.096-20.563-4.644-31.994-4.644v0z" horiz-adv-x="405" />
<glyph unicode="&#xe60d;" d="M243.232 341.355h-61.963v64.288c0 11.702-9.578 21.206-21.334 21.206h-64v34.346c0 3.51-1.749 6.784-4.662 8.757-2.891 1.974-6.592 2.389-9.898 1.12-49.472-19.232-81.44-65.728-81.44-118.442 0-50.272 29.056-94.88 74.666-115.594v-226.4c0-23.392 19.126-42.421 42.666-42.421h21.333c23.53 0 42.666 19.029 42.666 42.421v226.379c37.493 17.173 64.971 51.338 72.448 91.819 0.576 3.104-0.267 6.283-2.282 8.704-2.037 2.421-5.035 3.819-8.203 3.819v0zM159.936 10.635c0-11.702-9.578-21.206-21.333-21.206h-21.334c-11.766 0-21.334 9.504-21.334 21.206v192.202h64v-192.202zM166.709 253.888c-4.085-1.589-6.774-5.504-6.774-9.867v-19.978h-64v20.011c0 4.363-2.688 8.288-6.784 9.877-41.237 16.032-67.882 54.773-67.882 98.698 0 38.507 20.48 73.034 53.334 91.765v-112.981c0-5.856 4.768-10.602 10.666-10.602 5.888 0 10.666 4.746 10.666 10.602v74.23h64v-74.891c0-5.856 4.768-10.603 10.666-10.603h58.998c-9.621-30.208-32.832-54.56-62.891-66.261v0z" horiz-adv-x="256" />
<glyph unicode="&#xe60e;" d="M248.295 291.983l-50.987-262.743c-8.179-42.234-42.371-61.128-72.629-61.128-30.246 0-64.437 18.894-72.629 61.128l-50.975 262.743c-3.696 18.994 1.187 38.375 13.387 53.173 11.751 14.248 28.934 22.416 47.154 22.416h126.127c18.22 0 35.416-8.18 47.166-22.428 12.201-14.798 17.071-34.179 13.387-53.161v0zM215.639 329.26c-7.006 8.466-17.171 13.337-27.898 13.337h-126.127c-10.727 0-20.904-4.858-27.886-13.337-7.442-9.016-10.402-20.88-8.142-32.518l20.168-103.961h53.985c6.906 0 12.488-5.594 12.488-12.488s-5.582-12.488-12.488-12.488h-49.139l25.962-133.807c5.857-30.195 29.584-40.91 48.115-40.91s42.259 10.714 48.115 40.91l11.427 58.88h-47.017c-6.906 0-12.488 5.594-12.488 12.488s5.582 12.488 12.488 12.488h51.874l21.803 112.39h-48.702c-6.906 0-12.488 5.595-12.488 12.488s5.582 12.488 12.488 12.488h53.548l8.054 41.522c2.261 11.638-0.7 23.489-8.142 32.518v0zM124.716 380.097c-34.429 0-62.439 28.010-62.439 62.439 0 6.894 5.582 12.488 12.488 12.488s12.488-5.594 12.488-12.488c0-20.655 16.808-37.464 37.464-37.464s37.464 16.808 37.464 37.464c0 6.894 5.582 12.488 12.488 12.488s12.488-5.594 12.488-12.488c0-34.429-28.010-62.439-62.439-62.439v0zM124.716 417.561c-6.906 0-12.488 5.595-12.488 12.488v37.464c0 6.894 5.582 12.488 12.488 12.488s12.488-5.594 12.488-12.488v-37.464c0-6.893-5.582-12.488-12.488-12.488v0z" horiz-adv-x="250" />
<glyph unicode="&#xe60f;" d="M170.602 373.334c-5.899 0-10.667-4.779-10.667-10.666v-202.667c0-5.888 4.768-10.666 10.666-10.666 5.888 0 10.666 4.779 10.666 10.666v202.667c0 5.888-4.779 10.666-10.666 10.666v0zM202.602 341.333c-5.899 0-10.667-4.779-10.667-10.666v-160c0-5.888 4.768-10.666 10.666-10.666 5.888 0 10.666 4.779 10.666 10.666v160c0 5.888-4.779 10.666-10.666 10.666v0zM319.936 368c0 33.717-24.661 62.293-57.365 68.022-8.042 19.936-27.37 33.312-49.302 33.312-9.674 0-19.040-2.635-27.232-7.563-10.912 11.573-25.994 18.229-42.101 18.229-20.96 0-40.48-11.541-50.858-29.728-26.528-11.498-47.008-34.101-55.989-61.717-22.442-10.389-37.152-33.002-37.152-57.888 0-23.168 12.363-44.15 32.086-55.466-0.064-1.088-0.085-2.155-0.085-3.2 0-36.437 28.245-66.4 64-69.13v-42.87c0-21.707-7.883-45.664-15.584-66.23-3.787-10.091-5.728-20.704-5.802-31.552-0.299-50.528 41.525-92.81 93.248-94.23l2.774-0.043c52.95 0 96.043 42.038 96.043 93.728 0 12.139-2.358 23.968-7.008 35.136-10.186 24.512-14.336 42.816-14.336 63.19v74.87c35.744 2.731 64 32.694 64 69.13 0 7.478-1.238 14.848-3.68 22.006 9.291 12.106 14.346 26.773 14.346 41.994v0zM285.546 335.328c-2.933-3.146-3.702-7.755-1.942-11.669 2.87-6.368 4.33-12.981 4.33-19.659 0-26.475-21.536-48-48-48-0.683 0-1.322 0.118-1.984 0.202-0.79 0.118-1.578 0.224-2.4 0.288-2.848 0.245-5.93-0.726-8.149-2.742-2.208-2.026-3.466-4.886-3.466-7.882v-85.867c0-23.082 4.779-44.438 15.978-71.382 3.563-8.565 5.365-17.632 5.365-26.944 0-19.851-8.298-37.846-21.685-50.933 5.674 40.587-20.374 60.768-37.674 78.058-18.858 18.848-36.65 36.64-36.65 92.534v128c0 5.888-4.779 10.666-10.666 10.666-5.899 0-10.666-4.779-10.666-10.666v-128c0-64.736 22.784-87.52 42.902-107.616 17.046-17.034 41.834-47.082 29.099-73.717-3.669-7.67-17.632-10.72-29.365-10.72l-2.186 0.022c-39.53 1.099-72.736 34.432-72.501 72.79 0.053 8.32 1.546 16.459 4.448 24.192 8.374 22.358 16.939 48.608 16.939 73.717v53.866c0 2.998-1.269 5.856-3.478 7.872-1.974 1.813-4.544 2.794-7.189 2.794-0.331 0-0.65-0.011-0.96-0.042-0.811-0.064-1.611-0.171-2.4-0.288-0.65-0.085-1.302-0.202-1.974-0.202-26.474 0-48 21.525-48 48 0 2.304 0.224 4.726 0.725 7.648 0.822 4.896-1.834 9.728-6.432 11.637-15.979 6.646-26.294 22.102-26.294 39.382 0 17.781 11.339 33.834 28.224 39.947 3.285 1.184 5.782 3.904 6.678 7.274 6.602 24.704 24.682 44.906 48.373 54.038 2.549 0.97 4.63 2.901 5.792 5.354 6.293 13.195 19.168 21.387 33.6 21.387 12.597 0 24.234-6.496 31.125-17.397 1.707-2.688 4.523-4.48 7.68-4.875 3.2-0.406 6.336 0.64 8.65 2.827 6.006 5.664 13.781 8.779 21.877 8.779 14.656 0 27.37-9.995 30.922-24.31 1.109-4.49 5.013-7.755 9.632-8.064 25.11-1.707 44.779-22.624 44.779-47.626 0-12.075-4.64-23.68-13.056-32.672v0z" horiz-adv-x="320" />
<glyph unicode="&#xe610;" d="M303.84 400c-17.68 0-32.016-14.336-32.016-32 0-17.68 14.336-32 32.016-32s32.016 14.32 32.016 32c0 17.664-14.336 32-32.016 32v0zM95.76 128c-17.68 0-32.016-14.32-32.016-32s14.336-32 32.016-32c17.68 0 32 14.32 32 32s-14.32 32-32 32v0zM447.904 240c8.848 0 16 7.168 16 16v208c0 8.832-7.152 16-16 16h-224.096c-8.848 0-16.016-7.168-16.016-16 0-26.464-21.536-48-48.016-48s-48.016 21.536-48.016 48c0 8.832-7.168 16-16 16h-64.032c-8.848 0-16-7.168-16-16v-480c0-8.832 7.152-16 16-16h416.176c8.848 0 16 7.168 16 16v112c0 8.832-7.152 16-16 16-35.312 0-64.032 28.704-64.032 64 0 35.28 28.72 64 64.032 64v0zM431.888 81.328v-81.328h-384.16v448h33.632c7.44-36.464 39.76-64 78.416-64s70.992 27.536 78.432 64h193.68v-177.344c-45.36-7.632-80.032-47.168-80.032-94.656s34.672-87.024 80.032-94.672v0zM223.808 240c-35.312 0-64.032-28.72-64.032-64 0-35.296 28.72-64 64.032-64s64.032 28.704 64.032 64c0 35.28-28.72 64-64.032 64v0zM223.808 144c-17.648 0-32.016 14.352-32.016 32s14.368 32 32.016 32c17.648 0 32.016-14.352 32.016-32s-14.368-32-32.016-32v0z" horiz-adv-x="464" />
<glyph unicode="&#xe611;" d="M500.531 217.709c-24.752-42.627-63.561-73.406-105.545-84.349v-106.876c0-38.43-66.165-58.529-131.54-58.529s-131.54 20.099-131.54 58.529v106.876c-41.984 10.942-80.779 41.721-105.545 84.349-24.576 42.291-32.256 90.536-21.065 132.374 8.412 31.408 27.268 56.891 53.131 71.724 30.764 17.642 69.559 18.974 106.481 3.921 24.941 34.757 60.269 54.418 98.538 54.418 38.283 0 73.596-19.661 98.553-54.418 36.923 15.053 75.732 13.736 106.466-3.921 25.863-14.834 44.734-40.317 53.131-71.724 11.191-41.823 3.511-90.068-21.065-132.374v0zM493.378 342.52c-6.481 24.167-20.115 42.803-39.438 53.892-25.615 14.701-59.304 13.736-90.609-2.238-6.832-3.467-15.185-1.097-19.149 5.457-19.661 32.563-49.094 51.244-80.735 51.244s-61.060-18.68-80.721-51.244c-3.979-6.553-12.361-8.923-19.149-5.457-16.399 8.368-33.675 12.786-49.942 12.786-14.79 0-28.482-3.54-40.682-10.547-19.325-11.089-32.958-29.726-39.424-53.907-9.187-34.348-2.59-74.474 18.096-110.080 22.821-39.277 59.187-66.487 97.28-72.792 7.065-1.171 12.23-7.285 12.23-14.438v-118.711c0-8.499 35.855-29.257 102.312-29.257s102.312 20.758 102.312 29.257v118.711c0 7.154 5.178 13.268 12.229 14.438 38.093 6.305 74.459 33.514 97.28 72.792 20.7 35.606 27.297 75.732 18.11 110.095v0zM336.091 257.075c-1.668-6.642-7.622-11.074-14.161-11.074-1.185 0-2.37 0.131-3.57 0.439-7.827 1.946-12.581 9.903-10.635 17.744l14.614 58.529c1.975 7.856 9.933 12.595 17.73 10.649 7.841-1.96 12.595-9.904 10.635-17.745l-14.614-58.543zM208.53 246.44c-1.185-0.307-2.385-0.439-3.554-0.439-6.553 0-12.507 4.433-14.175 11.074l-14.614 58.543c-1.96 7.841 2.809 15.784 10.635 17.744 7.811 1.945 15.769-2.794 17.73-10.649l14.614-58.529c1.96-7.841-2.809-15.799-10.635-17.744v0z" horiz-adv-x="527" />
<glyph unicode="&#xe612;" d="M486.195 419.136c-1.216 4.966-5.286 8.729-10.317 9.575l-67.034 11.136c-5.056 22.938-25.523 40.154-49.92 40.154-18.56 0-35.43-10.176-44.377-26.073-18.279-2.906-32.295-18.803-32.295-37.927 0-19.238 14.195-35.226 32.666-37.977l-11.635-41.242c-6.49-20.839-14.745-36.954-54.528-36.122-103.335 86.605-228.083 101.85-233.395 102.464-3.597 0.422-7.258-0.743-9.959-3.162-2.727-2.432-4.288-5.913-4.288-9.561 0-9.6-0.218-21.786-0.461-35.238-0.231-12.557-0.461-26.023-0.563-39.488 0-0.025-0.025-0.051-0.025-0.089 0-0.077 0.013-0.154 0.013-0.231-0.256-31.795 0.231-63.463 3.469-82.765 15.706-93.504 89.293-163.2 179.174-173.453l23.347-81.856c1.613-5.619 6.72-9.28 12.275-9.28 1.178 0 2.355 0.154 3.52 0.486 6.797 1.945 10.726 9.037 8.793 15.834l-20.979 73.51c11.815 0.243 23.642 1.498 35.353 3.827l11.789-82.675c0.909-6.375 6.375-10.982 12.647-10.982 0.589 0 1.203 0.038 1.817 0.128 6.989 0.998 11.84 7.488 10.841 14.477l-12.224 85.773c82.534 27.648 140.096 107.123 141.056 196.928 0.128 12.915-0.845 25.779-2.918 38.246-4.262 25.625 5.517 50.931 25.485 66.048l47.962 36.263c4.083 3.085 5.926 8.307 4.711 13.274v0zM418.125 390.029c-27.584-20.877-41.113-55.616-35.303-90.675 1.83-10.995 2.688-22.362 2.573-33.779-0.87-81.869-55.040-154.074-131.699-175.59-15.821-4.442-31.987-6.695-48.089-6.695-87.539 0-161.907 64.576-176.845 153.549-0.218 1.28-0.371 2.944-0.563 4.365 3.238-3.673 6.656-7.219 10.406-10.496 22.067-19.277 51.469-29.709 82.599-29.709 5.837 0 11.75 0.358 17.664 1.113 7.014 0.87 11.968 7.271 11.097 14.285-0.883 7.014-7.219 11.994-14.272 11.111-30.823-3.853-59.277 4.135-80.294 22.489-18.829 16.448-29.376 39.731-29.76 65.574 0.115 13.581 0.346 27.047 0.563 39.117 0.141 7.347 0.256 14.323 0.346 20.71 35.353-6.592 130.432-29.696 209.063-97.126 2.163-1.856 4.903-2.944 7.757-3.059 59.456-2.509 75.584 25.958 84.416 54.285l12.224 43.366c0.461 1.613 2.291 6.195 9.485 13.927 2.675 2.867 4.135 6.656 3.533 10.522-0.589 3.878-2.675 7.117-6.080 9.050-0.307 0.269-1.6 1.254-1.933 1.485-4.889 3.303-11.443 2.816-15.808-1.203-2.406-2.214-5.466-3.443-8.615-3.443-7.053 0-12.774 5.747-12.774 12.8s5.709 12.787 12.467 12.787h0.026c0.179-0.026 1.203-0.154 1.408-0.167 5.721-0.422 11.277 2.995 13.209 8.538 3.584 10.304 13.235 17.241 24 17.241 14.093 0 25.562-11.481 25.562-25.6 0-6.259 4.519-11.597 10.675-12.621l47.181-7.846-24.217-18.304z" horiz-adv-x="487" />
<glyph unicode="&#xe613;" d="M238.202 166.010c-6.103-23.135-19.052-43.52-36.352-57.344v-50.904c16.101-7.666 26.934-24.145 26.934-42.604 0-26.004-21.154-47.158-47.144-47.158-13.016 0-25.048 5.376-33.684 14.202-8.65-8.825-20.682-14.202-33.684-14.202-26.004 0-47.158 21.154-47.158 47.158 0 18.459 10.833 34.938 26.948 42.604v50.904c-17.314 13.824-30.262 34.209-36.352 57.33-36.379 33.065-57.964 84.601-57.964 138.846 0 96.579 66.479 175.158 148.21 175.158 81.718 0 148.197-78.579 148.197-175.158 0-54.231-21.585-105.769-57.951-138.833v0zM114.27-5.053c9.567 0 17.893 6.791 19.78 16.155 1.28 6.279 6.804 10.793 13.218 10.793h1.361c6.413 0 11.938-4.514 13.218-10.793 1.887-9.364 10.226-16.155 19.793-16.155 11.143 0 20.21 9.068 20.21 20.211 0 9.567-6.791 17.906-16.168 19.807-6.266 1.267-10.779 6.791-10.779 13.204v54.569h-53.894v-54.568c0-6.413-4.513-11.938-10.793-13.204-9.364-1.9-16.155-10.24-16.155-19.806 0-11.142 9.068-20.211 20.21-20.211v0zM147.954 453.053c-66.87 0-121.263-66.493-121.263-148.211 0-48.114 19.389-93.467 51.86-121.303 2.21-1.9 3.759-4.46 4.379-7.303 4.284-19.159 14.673-35.678 28.511-46.551h73.014c13.838 10.873 24.226 27.392 28.511 46.551 0.62 2.843 2.169 5.403 4.365 7.303 32.485 27.837 51.874 73.189 51.874 121.303 0 81.718-54.394 148.211-121.25 148.211v0z" horiz-adv-x="297" />
<glyph unicode="&#xe614;" d="M51.136-32c-6.758 0-12.365 5.274-12.774 12.019l-25.6 422.4-0.025 39.181c0 21.171 17.229 38.4 38.4 38.4 21.184 0 38.413-17.229 38.413-38.4v-38.4l-25.626-423.181c-0.422-6.745-6.016-12.019-12.787-12.019v0zM51.136 454.4c-7.053 0-12.8-5.747-12.8-12.8v-38.4l12.8-210.906 12.838 211.673-0.026 37.632c0 7.053-5.747 12.8-12.813 12.8v0zM153.561-32c-6.758 0-12.365 5.274-12.774 12.019l-25.6 422.4-0.025 39.181c0 21.171 17.229 38.4 38.4 38.4 21.184 0 38.413-17.229 38.413-38.4v-38.4l-25.638-423.181c-0.41-6.745-6.003-12.019-12.774-12.019v0zM153.561 454.4c-7.066 0-12.8-5.747-12.8-12.8v-38.4l12.8-210.906 12.839 211.673-0.025 37.632c0 7.053-5.747 12.8-12.813 12.8v0z" horiz-adv-x="192" />
<glyph unicode="&#xe615;" d="M373.538 23.49c-7.639 0-13.838 6.2-13.838 13.838v29.267c0 26.098 5.231 52.252 15.097 75.651 8.455 20.024 12.925 42.454 12.925 64.899v37.57c0 7.638 6.2 13.824 13.838 13.824 7.652 0 13.851-6.185 13.851-13.824v-37.57c0-26.112-5.231-52.266-15.097-75.651-8.455-20.024-12.925-42.469-12.925-64.899v-29.267c0-7.639-6.2-13.838-13.851-13.838v0zM152.244 106.378c-7.638 0-13.838 6.2-13.838 13.838v40.988c0 35.923 7.583 71.901 21.905 104.060 12.773 28.644 19.512 60.721 19.512 92.796v52.598c0 7.652 6.2 13.838 13.851 13.838 7.638 0 13.838-6.185 13.838-13.838v-52.598c0-35.923-7.57-71.901-21.905-104.060-12.773-28.644-19.512-60.735-19.512-92.796v-40.988c0-7.639-6.2-13.838-13.851-13.838v0zM389.217-32c-46.565 0-85.794 22.404-110.44 63.073-3.971 6.546-1.868 15.055 4.663 19.013 6.559 3.957 15.055 1.868 19.013-4.663 13.755-22.694 39.964-49.747 86.763-49.747 75.347 0 109.070 69.507 109.070 138.379s-33.723 138.379-109.070 138.379c-7.639 0-13.838 6.199-13.838 13.838s6.2 13.838 13.838 13.838c80.522 0 136.76-68.289 136.76-166.054 0-97.778-56.237-166.054-136.76-166.054v0zM179.878 37.189c-105.957 0-179.961 91.053-179.961 221.406s74.005 221.405 179.961 221.405c105.97 0 179.975-91.053 179.975-221.405s-74.005-221.406-179.975-221.406v0zM179.878 452.325c-75.79 0-152.272-59.904-152.272-193.729s76.481-193.73 152.272-193.73c75.803 0 152.286 59.904 152.286 193.73s-76.481 193.729-152.286 193.729v0z" horiz-adv-x="526" />
<glyph unicode="&#xe616;" d="M217.267 311.245v15.155c0 21.171-17.216 38.4-38.4 38.4h-14.144l-10.112 91.085c-1.523 13.747-13.095 24.115-26.931 24.115s-25.421-10.368-26.944-24.115l-10.125-91.085h-14.131c-21.184 0-38.4-17.229-38.4-38.4v-15.155c-14.873-5.299-25.6-19.379-25.6-36.045v-268.8c0-21.171 17.229-38.4 38.4-38.4h153.6c21.171 0 38.387 17.229 38.387 38.4v268.8c0 16.666-10.726 30.745-25.6 36.045v0zM126.195 453.069c0.166 1.523 2.791 1.536 2.97 0l9.817-88.269h-22.605l9.817 88.269zM63.68 326.4c0 7.053 5.735 12.8 12.8 12.8h102.387c7.065 0 12.8-5.747 12.8-12.8v-12.8h-127.987v12.8zM217.267 6.4c0-7.053-5.734-12.8-12.787-12.8h-153.6c-7.066 0-12.8 5.747-12.8 12.8v268.8c0 7.053 5.734 12.8 12.8 12.8h153.6c7.053 0 12.787-5.747 12.787-12.8v-268.8z" horiz-adv-x="243" />
<glyph unicode="&#xe617;" d="M345.558 313.946c-7.652 0-13.838 6.199-13.838 13.838 0 22.888-18.625 41.514-41.514 41.514h-221.405c-22.888 0-41.499-18.625-41.499-41.514 0-7.639-6.2-13.838-13.838-13.838-7.652 0-13.838 6.199-13.838 13.838 0 38.151 31.038 69.189 69.175 69.189h221.405c38.151 0 69.189-31.038 69.189-69.189 0-7.639-6.185-13.838-13.838-13.838v0zM221.018 410.811c-7.638 0-13.838 6.199-13.838 13.838v13.838c0 7.624-6.2 13.838-13.838 13.838h-27.675c-7.625 0-13.838-6.213-13.838-13.838v-13.838c0-7.639-6.185-13.838-13.838-13.838-7.638 0-13.824 6.199-13.824 13.838v13.838c0 22.888 18.612 41.513 41.499 41.513h27.675c22.901 0 41.513-18.625 41.513-41.513v-13.838c0-7.639-6.185-13.838-13.838-13.838v0zM13.464 300.108h332.094c3.889 0 7.597-1.633 10.212-4.511 2.629-2.864 3.93-6.712 3.57-10.572l-25.392-279.261c-1.951-21.531-19.719-37.764-41.334-37.764h-226.207c-21.614 0-39.383 16.232-41.347 37.75l-25.378 279.275c-0.36 3.861 0.941 7.707 3.557 10.572 2.629 2.879 6.324 4.511 10.226 4.511v0zM52.639 8.255c0.636-7.168 6.559-12.579 13.768-12.579h226.207c7.195 0 13.118 5.411 13.769 12.592l24.022 264.164h-301.803l24.037-264.178z" horiz-adv-x="360" />
<glyph unicode="&#xe618;" d="M322.861 34.783h-55.663v-55.652c0-6.144-4.976-11.13-11.13-11.13h-44.533c-6.155 0-11.131 4.986-11.131 11.13v55.652h-166.99c-18.421 0-33.403 14.981-33.403 33.392v378.435c0 18.409 14.982 33.392 33.403 33.392h289.447c18.421 0 33.403-14.981 33.403-33.392v-378.435c0-18.409-14.981-33.392-33.403-33.392v0zM222.665-9.739h22.261v44.522h-22.261v-44.522zM334.002 446.608c0 6.133-4.998 11.13-11.142 11.13h-289.447c-6.144 0-11.142-4.998-11.142-11.13v-378.435c0-6.133 4.997-11.13 11.142-11.13h289.447c6.144 0 11.142 4.998 11.142 11.13v378.435zM200.404 291.874v-25.399c12.934-4.608 22.261-16.852 22.261-31.344v-89.044c0-18.409-14.982-33.392-33.392-33.392-18.421 0-33.403 14.981-33.403 33.392v89.043c0 14.492 9.339 26.736 22.261 31.344v25.399c-25.367 5.042-44.522 26.913-44.522 53.081 0 27.526 17.686 68.263 55.663 68.263 37.966 0 55.663-40.737 55.663-68.263 0-26.167-19.155-48.039-44.533-53.081v0zM178.131 146.087c0-6.133 4.998-11.13 11.142-11.13s11.131 4.998 11.131 11.13v89.043c0 6.133-4.987 11.131-11.131 11.131s-11.142-4.998-11.142-11.131v-89.043zM189.273 390.957c-21.793 0-33.403-26.713-33.403-46.002 0-17.597 14.982-31.911 33.403-31.911 18.41 0 33.392 14.313 33.392 31.911 0 19.289-11.609 46.002-33.392 46.002v0zM66.805 68.174c-6.155 0-11.13 4.986-11.13 11.13v356.174c0 6.144 4.975 11.13 11.13 11.13s11.13-4.986 11.13-11.13v-356.174c0-6.144-4.975-11.13-11.13-11.13v0z" horiz-adv-x="368" />
<glyph unicode="&#xe619;" d="M651.496 247.506c-25.716 0-46.545-20.829-46.545-46.545 0-25.693 20.829-46.522 46.545-46.522 25.693 0 46.545 20.829 46.545 46.522 0 25.716-20.852 46.546-46.545 46.546v0zM581.678 480.186c-61.882 0-118.691-22.063-162.979-58.717-45.824 37.935-102.819 58.717-162.839 58.717-141.173 0-256-114.827-256-255.953s114.828-255.954 256-255.954c60.021 0 117.016 20.783 162.839 58.74 44.288-36.678 101.096-58.74 162.979-58.74 141.149 0 256 114.827 256 255.953s-114.851 255.953-256 255.953v0zM46.406 224.232c0 115.48 93.952 209.431 209.454 209.431 47.57 0 92.835-15.965 129.722-45.196-37.329-44.497-59.904-101.748-59.904-164.235s22.575-119.738 59.904-164.236c-36.887-29.231-82.153-45.173-129.722-45.173-115.502 0-209.454 93.952-209.454 209.408v0zM696.203 49.106c1.071 3.933 1.838 7.983 1.838 12.241 0 25.716-20.852 46.546-46.545 46.546-25.716 0-46.545-20.829-46.545-46.546 0-17.711 10.008-32.931 24.6-40.797-15.407-3.608-31.395-5.725-47.872-5.725-115.502 0-209.454 93.952-209.454 209.408 0 34.677 8.587 67.328 23.575 96.14-0.070-1.024-0.303-2.002-0.303-3.048 0-25.716 20.829-46.546 46.546-46.546 25.693 0 46.546 20.829 46.546 46.546 0 25.693-20.853 46.522-46.546 46.522-7.424 0-14.36-1.909-20.596-5.003 38.447 45.685 95.977 74.822 160.233 74.822 62.138 0 117.876-27.368 156.277-70.493-22.552-3.235-39.913-22.435-39.913-45.847 0-25.716 20.829-46.546 46.545-46.546 14.778 0 27.811 7.029 36.328 17.781 6.563-20.294 10.216-41.868 10.216-64.326 0-73.216-37.841-137.681-94.929-175.128v0zM186.042 177.688c-25.716 0-46.546-20.829-46.546-46.522 0-25.716 20.829-46.546 46.546-46.546 25.693 0 46.546 20.829 46.546 46.546 0 25.693-20.852 46.522-46.546 46.522v0zM209.315 340.573c-25.716 0-46.546-20.829-46.546-46.522 0-25.716 20.829-46.546 46.546-46.546 25.693 0 46.546 20.829 46.546 46.546 0 25.693-20.852 46.522-46.546 46.522v0z" horiz-adv-x="838" />
<glyph unicode="&#xe61a;" d="M350.235 476.942h-26.947c-12.746 0-24.442-6.036-31.933-15.697-25.438 10.173-56.63 15.697-89.331 15.697-32.714 0-63.905-5.524-89.344-15.697-7.492 9.661-19.186 15.697-31.919 15.697h-26.948c-22.299 0-40.421-18.028-40.421-40.178v-80.371c0-22.151 18.122-40.178 40.421-40.178h26.948c12.733 0 24.428 6.036 31.919 15.697 14.659-5.861 31.353-9.97 49.004-12.584v-42.618c0-22.204 11.884-43.102 31.111-54.945l-18.566-11.21c-19.712-11.911-31.488-32.498-31.488-55.080 0-22.568 11.776-43.156 31.501-55.081l18.526-11.183-0.795-0.458c-18.674-10.86-30.289-30.747-30.289-51.901v-28.712c0-22.151 18.486-40.178 41.202-40.178s41.189 18.028 41.189 40.178v17.327l13.407 7.774c20.143 11.682 32.296 32.269 32.539 55.094 0.202 22.811-11.574 43.628-31.502 55.687l-18.971 11.452 18.985 11.466c19.928 12.046 31.69 32.876 31.488 55.7-0.243 22.811-12.396 43.399-32.526 55.067l-13.42 7.788v34.062c17.018 2.627 33.092 6.683 47.279 12.356 7.491-9.661 19.187-15.697 31.933-15.697h26.947c22.286 0 40.421 18.028 40.421 40.178v80.37c0 22.151-18.135 40.178-40.421 40.178v0zM223.811 266.24l20.102-11.668c11.857-6.871 19.025-18.917 19.159-32.188 0.122-13.285-6.804-25.452-18.54-32.553l-37.942-22.906c-4.001-2.425-6.468-6.777-6.468-11.452 0-4.662 2.465-9.014 6.468-11.439l37.929-22.906c11.749-7.087 18.675-19.267 18.553-32.539-0.135-13.285-7.303-25.33-19.173-32.202l-20.089-11.668c-4.15-2.399-6.683-6.804-6.683-11.56v-25.020c0-7.384-6.387-13.393-14.242-13.393s-14.255 6.010-14.255 13.393v28.712c0 11.682 6.494 22.703 16.936 28.767l20.332 11.789c4.109 2.372 6.643 6.724 6.683 11.439 0.041 4.729-2.425 9.122-6.468 11.574l-37.874 22.865c-11.614 7.020-18.553 19.052-18.553 32.188 0 13.151 6.939 25.169 18.54 32.188l37.888 22.878c4.042 2.452 6.508 6.844 6.468 11.56-0.041 4.73-2.573 9.082-6.683 11.452l-18.001 10.442c-11.884 6.885-19.267 19.416-19.267 32.714v40.071c4.46-0.216 8.865-0.566 13.393-0.566 5.107 0 10.078 0.364 15.104 0.634v-39.034c0-4.769 2.533-9.176 6.683-11.574v0zM363.709 356.392c0-7.383-6.050-13.393-13.474-13.393h-26.947c-5.983 0-11.264 4.055-12.894 9.863-1.065 3.867-3.827 7.034-7.505 8.663-1.752 0.781-3.611 1.159-5.471 1.159-2.075 0-4.15-0.472-6.050-1.415-23.633-11.776-55.363-18.27-89.344-18.27-33.994 0-65.725 6.495-89.358 18.27-3.611 1.779-7.828 1.887-11.52 0.256-3.678-1.63-6.441-4.796-7.505-8.663-1.63-5.807-6.912-9.863-12.881-9.863h-26.948c-7.438 0-13.474 6.010-13.474 13.393v80.37c0 7.383 6.036 13.393 13.474 13.393h26.948c5.969 0 11.251-4.055 12.881-9.849 1.064-3.867 3.826-7.047 7.505-8.677 3.692-1.63 7.909-1.536 11.52 0.256 23.633 11.776 55.364 18.27 89.358 18.27 33.981 0 65.711-6.494 89.344-18.27 3.625-1.792 7.828-1.9 11.52-0.256 3.678 1.63 6.44 4.81 7.505 8.677 1.63 5.793 6.912 9.849 12.894 9.849h26.947c7.424 0 13.474-6.010 13.474-13.393v-80.37z" horiz-adv-x="391" />
<glyph unicode="&#xe61b;" d="M107.963 309.333c9.432 0 17.078 7.646 17.078 17.067s-7.646 17.067-17.078 17.067c-9.421 0-17.067-7.646-17.067-17.067s7.646-17.067 17.067-17.067v0zM176.242 286.578c9.432 0 17.078 7.635 17.078 17.067 0 9.421-7.646 17.067-17.078 17.067-9.421 0-17.066-7.646-17.066-17.067 0-9.432 7.646-17.067 17.066-17.067v0zM187.631 354.844c9.432 0 17.066 7.646 17.066 17.067s-7.635 17.067-17.066 17.067c-9.432 0-17.078-7.646-17.078-17.067s7.646-17.067 17.078-17.067v0zM170.553 47.644c-6.292 0-11.378-5.097-11.378-11.378v-36.409c0-4.938-5.211-9.102-11.378-9.102s-11.378 4.164-11.378 9.102v36.409c0 6.281-5.097 11.378-11.378 11.378-6.292 0-11.389-5.097-11.389-11.378v-36.409c0-17.567 15.315-31.858 34.144-31.858s34.144 14.291 34.144 31.858v36.409c0 6.281-5.097 11.378-11.389 11.378v0zM277.334 240.202c-4.255 1.752-9.147 0.797-12.402-2.469l-8.18-8.18c-0.887 1.969-1.832 3.936-2.947 5.826 5.12 8.681 7.794 18.363 7.794 28.444s-2.674 19.763-7.794 28.445c5.12 8.681 7.794 18.363 7.794 28.444 0 14.131-5.302 27.557-14.768 37.957 2.253 6.144 3.391 12.493 3.391 18.933 0 27.808-20.059 51.018-46.478 55.933-4.915 26.408-28.126 46.467-55.945 46.467s-51.029-20.059-55.945-46.467c-26.419-4.915-46.478-28.126-46.478-55.933 0-6.44 1.138-12.788 3.391-18.933-9.467-10.399-14.768-23.825-14.768-37.957 0-10.080 2.674-19.763 7.794-28.444-5.12-8.681-7.794-18.364-7.794-28.445s2.674-19.763 7.794-28.444c-1.16-1.969-2.151-4.005-3.060-6.065l-8.090 8.089c-3.265 3.243-8.135 4.21-12.402 2.458s-7.032-5.905-7.032-10.501v-79.496c0-50.108 40.778-90.863 90.885-90.863h79.508c0.057 0 0.102 0.023 0.148 0.023h11.571c50.199 0 91.045 40.835 91.045 91.022v79.644c0 4.596-2.776 8.75-7.031 10.513v0zM193.32 81.778h-52.19l120.468 120.445v-52.178c0-37.649-30.629-68.267-68.278-68.267v0zM33.974 201.893l97.553-97.541-22.608-22.596h-6.826c-37.558 0-68.119 30.55-68.119 68.108v52.031zM64.478 242.523c-5.051 6.258-7.725 13.619-7.725 21.299s2.674 15.041 7.725 21.288c3.368 4.175 3.368 10.137 0 14.302-5.051 6.258-7.725 13.619-7.725 21.299 0 10.195 4.676 19.82 12.846 26.408 4.278 3.459 5.484 9.477 2.844 14.302-2.856 5.256-4.312 10.695-4.312 16.179 0 18.819 15.314 34.134 34.145 34.134 6.292 0 11.378 5.097 11.378 11.378 0 18.819 15.314 34.133 34.145 34.133s34.144-15.315 34.144-34.133c0-6.281 5.086-11.378 11.378-11.378 18.819 0 34.144-15.315 34.144-34.134 0-5.484-1.457-10.923-4.312-16.179-2.639-4.824-1.445-10.843 2.845-14.302 8.169-6.587 12.845-16.214 12.845-26.408 0-7.68-2.674-15.041-7.726-21.299-3.368-4.165-3.368-10.126 0-14.302 5.052-6.246 7.726-13.608 7.726-21.288s-2.674-15.041-7.726-21.299c-3.368-4.165-3.368-10.126 0-14.302 4.096-5.051 6.531-10.854 7.35-16.953l-90.852-90.829-90.51 90.499c0.763 6.212 3.209 12.14 7.373 17.283 3.368 4.175 3.368 10.137 0 14.302v0z" horiz-adv-x="285" />
<glyph unicode="&#xe61c;" d="M311.586 112.695c-35.974 0-66.782-31.11-66.782-56.576 0-24.454 29.328-43.598 66.782-43.598 37.443 0 66.783 19.144 66.783 43.598 0 25.466-30.82 56.576-66.783 56.576v0zM311.586 34.783c-25.478 0-44.522 11.264-44.522 21.337 0 11.442 19.245 34.315 44.522 34.315 25.266 0 44.522-22.873 44.522-34.315 0-10.073-19.044-21.337-44.522-21.337v0zM422.889 257.392c-24.565 0-44.522-19.968-44.522-44.522 0-6.144 4.976-11.13 11.13-11.13 6.144 0 11.13 4.986 11.13 11.13 0 12.277 9.984 22.261 22.261 22.261 6.144 0 11.13 4.987 11.13 11.131s-4.986 11.131-11.13 11.131v0zM200.281 257.392c-6.155 0-11.131-4.987-11.131-11.131s4.976-11.131 11.131-11.131c12.266 0 22.261-9.984 22.261-22.261 0-6.144 4.976-11.13 11.131-11.13 6.144 0 11.131 4.986 11.131 11.13 0 24.553-19.968 44.522-44.522 44.522v0zM621.601 307.846c-16.117 25.6-42.619 38.589-78.759 38.589-20.413 0-45.346-4.13-67.25-10.974-5.743 10.863-13.2 20.836-22.305 29.796 47.282 38.278 35.017 102.856 34.438 105.795-0.813 4.029-3.762 7.291-7.691 8.47-3.94 1.191-8.192 0.123-11.097-2.782-42.062-42.073-97.959-65.236-157.351-65.236-59.403 0-115.3 23.163-157.362 65.236-2.905 2.905-7.157 3.974-11.097 2.783-3.929-1.191-6.879-4.441-7.691-8.471-0.579-2.928-12.8-67.373 34.304-105.661-8.96-8.893-16.362-18.911-22.149-29.93-21.894 6.845-46.837 10.974-67.272 10.974-36.141 0-62.642-12.989-78.759-38.589-2.271-3.629-2.271-8.237 0-11.865 16.117-25.611 42.618-38.589 78.759-38.589 16.34 0 35.328 2.605 53.794 7.268 3.061-31.6 17.341-59.192 41.762-80.395 15.282-13.257 24.409-34.426 24.409-56.61 0-12.233-1.758-22.795-5.22-31.388-3.929-9.739-5.911-19.856-5.911-30.063 0-54.149 54.917-98.204 122.435-98.204 67.506 0 122.435 44.055 122.435 98.204 0 10.24-1.993 20.358-5.921 30.063-3.462 8.592-5.209 19.156-5.209 31.388 0 22.183 9.116 43.353 24.398 56.62 24.42 21.192 38.7 48.796 41.762 80.384 18.466-4.663 37.465-7.268 53.793-7.268 36.14 0 62.642 12.978 78.759 38.589 2.27 3.628 2.27 8.236 0 11.865v0zM542.842 279.652c-18.032 0-40.849 3.817-61.017 10.195-3.373 1.080-7.068 0.468-9.94-1.636-2.861-2.092-4.553-5.421-4.553-8.971 0-0.534 0.034-1.068 0.078-1.558 0-30.397-12.010-56.888-34.716-76.6-20.38-17.687-32.067-44.455-32.067-73.428 0-15.315 2.226-28.293 6.834-39.714 2.849-7.056 4.296-14.37 4.296-21.738 0-41.873-44.945-75.943-100.174-75.943-55.24 0-100.174 34.070-100.174 75.943 0 7.346 1.436 14.659 4.297 21.749 4.597 11.409 6.834 24.387 6.834 39.702 0 28.973-11.698 55.741-32.078 73.416-22.706 19.723-34.704 46.214-34.694 76.567 0.011 0.223 0.055 1.157 0.067 1.369 0.078 3.595-1.581 6.99-4.452 9.138-1.959 1.458-4.308 2.226-6.678 2.226-1.124 0-2.26-0.167-3.351-0.523-20.18-6.377-42.997-10.195-61.040-10.195-25.244 0-43.542 7.291-55.685 22.261 12.143 14.97 30.441 22.261 55.685 22.261 21.081 0 47.627-4.942 69.276-12.889 5.554-2.059 11.787 0.635 14.102 6.133 6.589 15.705 16.941 29.207 30.754 40.147h16.963c6.144 0 11.131 4.987 11.131 11.13s-4.987 11.131-11.131 11.131h-22.261c-0.334 0-0.601-0.156-0.924-0.189-25.623 18.142-31.733 46.135-32.356 65.536 43.765-36.23 98.237-55.93 155.715-55.93 57.466 0 111.939 19.712 155.715 55.93-0.623-19.4-6.734-47.394-32.356-65.536-0.323 0.034-0.601 0.189-0.924 0.189h-22.261c-6.155 0-11.13-4.987-11.13-11.131s4.976-11.13 11.13-11.13h16.64c14.202-11.242 24.665-24.743 31.099-40.114 2.304-5.499 8.493-8.226 14.103-6.167 21.66 7.958 48.184 12.889 69.243 12.889 25.244 0 43.543-7.291 55.686-22.261-12.144-14.971-30.442-22.261-55.686-22.261v0z" horiz-adv-x="624" />
<glyph unicode="&#xe61d;" d="M805.175-10.935c-17.408-13.897-38.418-20.919-59.484-20.919-18.341 0-36.736 5.321-52.864 16.055l-60.581 40.339-122.99 35.091h-177.865l-122.99-35.091-60.599-40.339c-16.109-10.733-34.505-16.055-52.846-16.055-21.084 0-42.075 7.022-59.465 20.919-34.669 27.703-45.605 75.045-26.587 115.127l71.661 150.948-8.192 17.536c-6.345 13.641-6.82 29.458-1.261 43.447s16.768 25.197 30.775 30.756l143.853 57.070c-0.768 13.604 3.237 27.026 11.995 37.724 10.478 12.8 25.966 20.132 42.496 20.132h240.165c16.53 0 32.019-7.332 42.496-20.132 8.759-10.697 12.764-24.119 12.014-37.724l130.359-51.712c17.518-6.949 31.543-20.974 38.473-38.455 6.912-17.463 6.327-37.23-1.645-54.254l-2.029-4.37 71.68-150.967c19.017-40.082 8.082-87.424-26.569-115.127v0zM100.663 212.169l-58.733-123.685c-11.684-24.649-4.956-53.76 16.384-70.803 20.041-16.019 47.854-17.243 69.248-2.999l49.865 33.207-76.763 164.279zM105.088 302.611c-1.865-4.717-1.701-9.837 0.439-14.428l105.106-224.933 96.933 27.648-55.333 276.26-136.887-54.308c-4.736-1.884-8.375-5.523-10.258-10.24v0zM554.587 418.469c-3.475 4.279-8.649 6.729-14.189 6.729h-240.164c-5.522 0-10.716-2.45-14.19-6.711-2.029-2.487-5.229-7.771-3.767-15.104l61.513-307.145h153.070l61.513 307.127c1.463 7.351-1.737 12.635-3.785 15.104v0zM729.746 300.269c-3.273 8.284-9.655 14.647-17.938 17.938l-123.392 48.951-55.314-276.26 96.914-27.648 98.962 211.803c3.767 8.028 4.023 16.988 0.768 25.216v0zM798.702 88.485l-58.734 123.703-76.764-164.297 49.865-33.207c21.376-14.226 49.225-13.056 69.284 2.999 21.321 17.024 28.050 46.153 16.347 70.803v0z" horiz-adv-x="841" />
<glyph unicode="&#xe61e;" d="M249.183 264.475c11.156 0 20.211-9.055 20.211-20.211 0-11.169-9.055-20.21-20.21-20.21-11.169 0-20.21 9.041-20.21 20.21 0 11.156 9.041 20.211 20.21 20.211v0zM289.603 331.83c11.156 0 20.211-9.055 20.211-20.211s-9.055-20.211-20.211-20.211c-11.17 0-20.211 9.055-20.211 20.211s9.041 20.211 20.211 20.211v0zM343.498 277.935c11.156 0 20.211-9.041 20.211-20.21 0-11.156-9.055-20.197-20.211-20.197-11.17 0-20.211 9.041-20.211 20.197 0 11.169 9.041 20.21 20.211 20.21v0zM431.63 385.199c-3.625 0-7.249 1.455-9.903 4.325-5.053 5.471-4.702 13.986 0.755 19.038 5.174 4.783 8.017 11.075 8.017 17.678 0 6.615-2.843 12.894-8.017 17.678-5.457 5.052-5.807 13.581-0.755 19.038 5.053 5.484 13.582 5.793 19.038 0.754 10.765-9.943 16.694-23.255 16.694-37.47s-5.928-27.514-16.694-37.457c-2.587-2.399-5.861-3.584-9.135-3.584v0zM108.032-32.269v0c-28.066 0.014-52.628 9-69.16 25.344-16.559 16.37-25.695 40.718-25.695 68.554 0 43.048 20.965 115.065 120.792 213.72 8.893 8.785 18.014 17.367 28.429 26.772 1.819 14.808 8.475 28.484 19.119 39.007 11.79 11.654 27.325 18.392 44.072 19.16 3.261 6.939 7.599 13.123 12.988 18.432 18.176 17.947 46.188 24.010 70.427 15.306 44.234 11.844 81.88 3.261 110.174-24.697 13.837-13.676 23.067-29.83 27.419-48.034 17.798-26.462 14.471-61.292-8.394-83.9-0.916-0.903-1.887-1.711-2.856-2.493-1.832-4.244-3.88-8.65-6.225-13.312 0.836-18.769-6.117-36.796-19.442-49.974-5.376-5.295-11.615-9.58-18.62-12.813-0.849-16.452-7.693-31.973-19.429-43.56-10.267-10.146-23.66-16.64-38.158-18.62l-0.445-0.458c-2.897-3.005-5.793-6.010-8.947-9.122-99.772-98.601-172.558-119.31-216.050-119.31v0zM228.823 333.42c-10.82 0-20.898-4.069-28.362-11.452-7.141-7.060-11.264-16.559-11.601-26.732-0.121-3.679-1.738-7.141-4.487-9.594-11.776-10.536-21.773-19.887-31.475-29.453-98.115-96.983-112.775-163.53-112.775-194.56 0-20.575 6.292-38.117 17.691-49.394 11.453-11.318 29.278-17.556 50.217-17.556 31.475 0 98.924 14.498 197.107 111.522 2.991 2.95 5.74 5.807 8.488 8.663l3.935 4.069c2.358 2.412 5.524 3.867 8.892 4.055 10.038 0.566 19.361 4.622 26.247 11.412 8.125 8.031 12.274 19.334 11.385 30.99-0.269 3.382 0.768 6.737 2.884 9.404 0.108 0.148 1.388 1.9 1.509 2.048 1.644 2.102 3.88 3.678 6.427 4.514 6.225 2.034 11.56 5.214 15.832 9.432 8.435 8.34 12.558 20.063 11.277 32.148-0.269 2.614 0.216 5.255 1.428 7.599 3.328 6.427 6.144 12.463 8.394 17.974 0.863 2.102 2.25 3.962 4.042 5.389l1.765 1.388c0.553 0.404 1.118 0.781 1.63 1.294 13.959 13.784 15.603 35.301 3.921 51.159-1.146 1.549-1.954 3.341-2.344 5.228-2.964 14.080-9.903 26.597-20.628 37.188-22.178 21.935-51.873 27.5-88.145 16.748-3.072-0.902-6.387-0.7-9.337 0.62-15.050 6.75-33.617 3.517-45.218-7.963-4.554-4.5-7.869-10.159-9.876-16.842-1.846-6.212-7.936-10.159-14.309-9.54-1.509 0.161-3.018 0.243-4.513 0.243v0z" horiz-adv-x="458" />
<glyph unicode="&#xe61f;" d="M318.396 170.934c-4.756-28.593-27.216-49.994-55.057-54.147l-8.965-53.863c-3.653-22.039-22.517-38.036-44.828-38.036h-123.984c-22.323 0-41.176 15.997-44.84 38.048l-40.675 244.531c-0.557 3.3 0.376 6.667 2.549 9.228 2.15 2.548 5.336 4.016 8.681 4.016h318.612c3.334 0 6.519-1.467 8.67-4.016 2.173-2.56 3.095-5.928 2.548-9.228l-22.71-136.534zM24.69 297.956l38.48-231.299c1.832-11.014 11.241-19.012 22.392-19.012h123.984c11.139 0 20.548 7.998 22.38 19.012l38.491 231.299h-245.726zM293.478 297.956l-26.112-156.923c14.666 4.961 25.907 17.556 28.581 33.632l20.514 123.29h-22.983zM193.354 400.356c-6.292 0-11.378 5.097-11.378 11.378v56.889c0 6.281 5.086 11.378 11.378 11.378 6.28 0 11.378-5.097 11.378-11.378v-56.889c0-6.281-5.097-11.378-11.378-11.378v0zM147.843 366.222c-6.292 0-11.378 5.097-11.378 11.378v91.022c0 6.28 5.086 11.378 11.378 11.378 6.28 0 11.378-5.097 11.378-11.378v-91.022c0-6.281-5.097-11.378-11.378-11.378v0zM102.332 366.222c-6.292 0-11.378 5.097-11.378 11.378v56.889c0 6.281 5.086 11.378 11.378 11.378 6.281 0 11.378-5.097 11.378-11.378v-56.889c0-6.281-5.097-11.378-11.378-11.378v0zM17.385 23.262c72.135-43.383 189.508-43.383 261.644 0 5.37 3.254 12.379 1.502 15.611-3.88 3.243-5.393 1.502-12.379-3.88-15.622-39.299-23.632-90.931-35.453-142.552-35.453s-103.254 11.822-142.564 35.453c-5.37 3.243-7.111 10.228-3.869 15.622 3.231 5.393 10.24 7.123 15.611 3.88v0z" horiz-adv-x="342" />
<glyph unicode="&#xe620;" d="M158.367 370.286c-20.175 0-36.584 16.409-36.584 36.571s16.408 36.572 36.584 36.572c20.175 0 36.583-16.409 36.583-36.572s-16.409-36.571-36.584-36.571v0zM158.367 419.048c-6.717 0-12.191-5.474-12.191-12.191s5.474-12.19 12.19-12.19c6.717 0 12.19 5.474 12.19 12.19s-5.474 12.191-12.19 12.191v0zM243.724-19.882h-170.715c-33.609 0-60.965 27.343-60.965 60.964v207.274c0 33.609 27.355 60.964 60.965 60.964h21.943c8.070 0 14.641 6.57 14.641 14.641v12.093c0 11.618-5.474 21.418-10.057 27.599-12.154 16.348-16.799 36.522-13.081 56.808 5.266 28.757 27.928 52.041 56.381 57.942 5.144 1.073 10.374 1.609 15.53 1.609 40.339 0 73.155-32.804 73.155-73.155 0-15.36-4.779-30.086-13.849-42.557-6.887-9.497-10.532-19.639-10.532-29.331v-11.008c0-8.070 6.571-14.641 14.641-14.641h21.943c33.609 0 60.965-27.356 60.965-60.964v-207.274c0-33.622-27.356-60.964-60.964-60.964v0zM73.009 284.928c-20.163 0-36.572-16.409-36.572-36.572v-207.274c0-20.175 16.409-36.584 36.572-36.584h170.715c20.163 0 36.572 16.409 36.572 36.584v207.274c0 20.163-16.409 36.572-36.572 36.572h-21.943c-21.516 0-39.034 17.517-39.034 39.034v11.008c0 14.872 5.254 29.964 15.202 43.654 6.010 8.289 9.191 18.054 9.191 28.233 0 26.905-21.882 48.774-48.774 48.774-3.499 0-7.059-0.365-10.582-1.097-18.834-3.913-33.841-19.37-37.352-38.473-2.475-13.556 0.597-27.002 8.68-37.876 9.716-13.093 14.86-27.66 14.86-42.13v-12.093c0-21.516-17.505-39.034-39.022-39.034h-21.943z" horiz-adv-x="305" />
<glyph unicode="&#xe621;" d="M185.185 394.125c21.557-12.553 49.823-19.474 79.607-19.474 29.767 0 58.050 6.921 79.589 19.474 6.885 4.025 10.24 12.164 8.156 19.862s-9.057 13.047-17.055 13.047h-141.4c-7.98 0-14.971-5.349-17.055-13.047-2.066-7.697 1.271-15.837 8.156-19.862v0zM450.012 394.125c21.539-12.553 49.823-19.474 79.589-19.474 29.784 0 58.050 6.921 79.607 19.474 6.885 4.025 10.222 12.164 8.157 19.862-2.083 7.698-9.075 13.047-17.055 13.047h-141.4c-7.998 0-14.971-5.349-17.055-13.047-2.065-7.697 1.271-15.837 8.156-19.862v0zM763.339 480.141c-9.622 2.136-18.927-4.026-20.957-13.559l-50.070-233.489h-109.745v70.356c0 29.202-23.746 52.966-52.966 52.966h-282.465c-29.202 0-52.965-23.764-52.965-52.966v-70.62h-109.303l-49.982 233.207c-2.066 9.551-11.405 15.642-20.974 13.577-9.534-2.048-15.589-11.44-13.541-20.957l52.559-245.354v-227.646c0-9.745 7.892-17.655 17.655-17.655s17.655 7.909 17.655 17.655v211.862h105.931v-211.862c0-9.745 7.892-17.655 17.655-17.655s17.655 7.909 17.655 17.655v211.862h52.966v-211.862c0-9.745 7.892-17.655 17.655-17.655s17.655 7.909 17.655 17.655v229.517c0 9.745-7.892 17.655-17.655 17.655h-70.62v70.621c0 9.728 7.91 17.655 17.655 17.655h282.465c9.745 0 17.655-7.927 17.655-17.655v-70.356h-70.586c-9.745 0-17.655-7.91-17.655-17.655v-229.764c0-9.745 7.909-17.655 17.655-17.655 9.764 0 17.655 7.909 17.655 17.655v212.109h52.93v-212.127c0-9.745 7.909-17.655 17.655-17.655 9.764 0 17.655 7.909 17.655 17.655v212.127h106.355v-212.109c0-9.745 7.909-17.655 17.655-17.655 9.764 0 17.655 7.909 17.655 17.655v227.893l52.665 245.619c2.048 9.534-4.025 18.908-13.559 20.956v0z" horiz-adv-x="777" />
<glyph unicode="&#xe622;" d="M404.13-31.798h-350.316c-22.299 0-40.421 18.122-40.421 40.421v417.697c0 22.286 18.122 40.421 40.421 40.421h350.316c22.286 0 40.421-18.135 40.421-40.421v-417.697c0-22.299-18.135-40.421-40.421-40.421v0zM417.603 426.321c0 7.424-6.050 13.473-13.474 13.473h-350.316c-7.438 0-13.474-6.049-13.474-13.473v-80.856h377.263v80.856zM417.603 318.518h-377.263v-309.894c0-7.438 6.036-13.474 13.474-13.474h350.316c7.424 0 13.474 6.036 13.474 13.474v309.894zM242.446 117.625v-55.108h26.948c7.438 0 13.474-6.036 13.474-13.474s-6.036-13.474-13.474-13.474h-80.842c-7.451 0-13.474 6.036-13.474 13.474s6.023 13.474 13.474 13.474h26.947v55.108c-38.185 6.454-67.368 39.653-67.368 79.63v67.368c0 7.438 6.023 13.474 13.474 13.474h134.737c7.438 0 13.474-6.036 13.474-13.474v-67.368c0-39.976-29.197-73.175-67.368-79.63v0zM282.866 251.149h-107.79v-53.894c0-29.723 24.159-53.894 53.894-53.894 29.723 0 53.895 24.172 53.895 53.894v53.894zM87.498 412.847c11.156 0 20.21-9.054 20.21-20.224 0-11.156-9.055-20.21-20.21-20.21-11.169 0-20.21 9.054-20.21 20.21 0 11.17 9.041 20.224 20.21 20.224v0zM303.077 412.847c11.156 0 20.211-9.054 20.211-20.224 0-11.156-9.055-20.21-20.211-20.21-11.169 0-20.211 9.054-20.211 20.21 0 11.17 9.041 20.224 20.211 20.224v0zM370.445 412.847c11.156 0 20.211-9.054 20.211-20.224 0-11.156-9.055-20.21-20.211-20.21-11.17 0-20.211 9.054-20.211 20.21 0 11.17 9.041 20.224 20.211 20.224v0z" horiz-adv-x="445" />
<glyph unicode="&#xe623;" d="M255.915 480.086c-141.155 0-256-114.816-256-255.943 0-141.142 114.844-255.958 256-255.958 141.142 0 256 114.816 256 255.958 0 141.127-114.858 255.943-256 255.943v0zM255.915 451.655c60.217 0 114.887-23.68 155.634-62.009-35.527-17.664-70.954-9.060-111.19 0.768-41.856 10.212-89.315 21.788-138.326-1.792-26.965-12.971-39.666-36.182-51.954-58.624-16.327-29.824-30.749-55.922-77.369-61.824 20.579 104.434 112.796 183.481 223.203 183.481v0zM255.915-3.385c-125.482 0-227.555 102.073-227.555 227.527 0 5.063 0.427 10.026 0.754 15.018 66.787 5.788 88.391 45.155 105.927 77.184 11.050 20.195 20.594 37.646 39.325 46.649 39.837 19.143 78.421 9.742 119.239-0.199 44.714-10.909 90.837-22.115 138.183 5.504 32.27-39.267 51.683-89.486 51.683-144.156 0-125.454-102.087-227.527-227.555-227.527v0zM255.915 309.447c-47.061 0-85.333-38.272-85.333-85.305 0-47.062 38.272-85.334 85.334-85.334 47.047 0 85.334 38.272 85.334 85.334 0 47.033-38.286 85.305-85.334 85.305v0zM255.915 167.253c-31.388 0-56.889 25.514-56.889 56.889 0 31.36 25.5 56.875 56.889 56.875 31.374 0 56.889-25.514 56.889-56.875 0-31.374-25.514-56.889-56.889-56.889v0z" />
<glyph unicode="&#xe624;" d="M211.703-32c-116.825 0-211.862 99.787-211.862 222.455 0 116.772 67.337 289.545 211.862 289.545s211.862-172.774 211.862-289.545c0-122.668-95.038-222.455-211.862-222.455v0zM211.703 444.69c-115.183 0-176.552-147.65-176.552-254.235 0-103.195 79.201-187.145 176.552-187.145s176.552 83.951 176.552 187.145c0 106.584-61.37 254.235-176.552 254.235v0z" horiz-adv-x="424" />
<glyph unicode="&#xe625;" d="M511.901 152.889c0-101.945-82.944-184.889-184.889-184.889-77.028 0-145.394 47.459-172.643 118.954-89.998 20.579-154.453 100.85-154.453 193.934 0 109.795 89.316 199.111 199.097 199.111 52.821 0 102.215-20.381 139.762-57.501 81.593-6.030 144.683-73.415 144.683-155.833 0-4.48-0.242-9.074-0.726-14.123 19.101-29.781 29.17-64.114 29.17-99.655v0zM455.012 266.667c0 68.992-54.058 125.098-123.065 127.73-3.683 0.142-7.182 1.721-9.728 4.381-32.583 34.034-76.331 52.778-123.207 52.778-94.094 0-170.667-76.558-170.667-170.666 0-82.147 58.61-152.661 139.335-167.651 5.091-0.953 9.273-4.594 10.894-9.514 21.262-64.171 80.91-107.278 148.438-107.278 86.258 0 156.445 70.186 156.445 156.445 0 31.587-9.401 62.038-27.178 88.078-1.962 2.873-2.802 6.343-2.375 9.785 0.754 6.059 1.11 11.122 1.11 15.915v0zM327.012 81.778c-39.211 0-71.111 31.901-71.111 71.111 0 7.851 6.372 14.222 14.222 14.222s14.222-6.372 14.222-14.222c0-23.524 19.143-42.666 42.666-42.666s42.666 19.143 42.666 42.666c0 23.524-19.143 42.666-42.666 42.666-7.851 0-14.222 6.372-14.222 14.222s6.372 14.222 14.222 14.222c39.211 0 71.111-31.901 71.111-71.111s-31.901-71.111-71.111-71.111v0zM199.012 181.334c-54.898 0-99.555 44.658-99.555 99.555s44.658 99.555 99.555 99.555c54.898 0 99.555-44.658 99.555-99.555s-44.658-99.555-99.555-99.555v0zM199.012 352c-39.197 0-71.111-31.9-71.111-71.111s31.914-71.111 71.111-71.111c39.21 0 71.111 31.9 71.111 71.111s-31.9 71.111-71.111 71.111v0z" />
<glyph unicode="&#xe626;" d="M347.808 347.040c-3.024 3.168-7.2 4.96-11.584 4.96h-0.016c-4.384-0.016-8.56-1.808-11.568-4.992-0.528-0.544-9.904-10.464-23.168-27.152-47.456 88.464-111.024 152.544-113.92 155.456-3.008 2.992-7.072 4.688-11.312 4.688-4.256 0-8.32-1.696-11.312-4.688-6.72-6.736-164.688-166.576-164.688-331.312 0-97.040 78.944-176 176-176h159.984c70.576 0 128 59.808 128 133.328 0 122.336-111.664 240.736-116.416 245.712v0zM288.288 0.112h-112.016c-33.312 0-62.592 28.512-63.936 62.256-2.368 59.152 44.064 121.6 63.68 145.68 14.208-17.088 40.176-51.632 54.352-90.816 2.16-5.936 7.6-10.048 13.888-10.512 6.224-0.352 12.256 2.816 15.264 8.384 9.68 18.016 21.088 33.392 28.544 43.184 15.12-18.64 50.112-66.848 48.16-111.728-1.088-25.184-23.040-46.448-47.936-46.448v0zM352.816 1.616c9.024 12.4 14.688 27.392 15.376 43.552 2.336 53.808-33.632 106.608-55.296 133.28-12.144 15.008-37.040 14.976-49.296-0.112-4.48-5.536-10-12.72-15.76-21.12-15.616 31.088-35.248 56.88-47.216 71.28-12.16 14.624-36.528 14.672-48.736 0.048-27.872-33.472-74.24-99.728-71.52-167.456 0.4-10.272 2.528-20.144 5.968-29.392-32.928 26.416-54.096 66.912-54.096 112.304 0 127.008 108.224 257.088 144.016 296.608 22.432-24.752 73.344-85.024 108.064-157.664 2.448-5.104 7.376-8.528 12.992-9.040 5.584-0.496 11.088 1.968 14.4 6.544 9.408 12.96 18.048 23.68 24.512 31.344 27.808-32.992 96-122.896 96-210.464 0-49.888-34.368-91.376-79.408-99.712v0z" horiz-adv-x="464" />
<glyph unicode="&#xe627;" d="M859.928 85.69c-0.698-6.61-4.189-12.591-9.565-16.454-28.276-20.27-63.302-31.442-98.606-31.442-29.742 0-59.206 7.843-85.248 22.668-76.52-59.741-172.195-92.462-271.384-92.462-170.589 0-325.166 96.675-393.752 246.296-2.816 6.168-2.816 13.242 0 19.386 68.585 149.643 223.162 246.319 393.752 246.319 99.188 0 194.862-32.721 271.384-92.462 56.832 32.372 131.723 28.579 183.832-8.774 5.399-3.864 8.89-9.868 9.588-16.454 5.539-52.247-14.197-102.865-52.48-138.31 38.284-35.445 58.019-86.063 52.48-138.31v0zM814.289 346.74c-37.096 21.76-86.435 22.179-124.765 0.349-3.351-1.931-6.4-4.142-9.448-6.33-8.704-6.237-21.853-6.726-30.022 0.163-70.214 59.671-160.768 92.532-254.929 92.532-148.736 0-283.648-81.85-346.834-209.454 63.185-127.605 198.097-209.454 346.834-209.454 94.161 0 184.716 32.861 254.929 92.532 8.099 6.889 19.944 7.401 28.602 1.187 4.468-3.212 7.517-5.446 10.869-7.331 38.33-21.877 87.715-21.434 124.765 0.326 0.582 41.216-20.736 79.988-57.344 103.052-6.749 4.259-10.869 11.683-10.869 19.689s4.12 15.43 10.869 19.689c36.608 23.040 57.926 61.813 57.344 103.051v0zM325.329 107.637c-12.87 0-23.272 10.426-23.272 23.272v186.182c0 12.846 10.403 23.272 23.272 23.272 12.846 0 23.272-10.426 23.272-23.272v-186.182c0-12.846-10.426-23.272-23.272-23.272v0zM208.966 177.454c-25.716 0-46.546 20.829-46.546 46.546s20.829 46.546 46.546 46.546c25.693 0 46.546-20.829 46.546-46.546s-20.852-46.546-46.546-46.546v0z" horiz-adv-x="861" />
<glyph unicode="&#xe628;" d="M525.049 33.864c0-36.207-29.459-65.668-65.641-65.668-11.697 0-23.040 3.099-33.109 9.019-108.781-11.894-218.965-11.894-327.68-0.026-10.056-5.908-21.373-8.993-33.057-8.993-36.194 0-65.641 29.459-65.641 65.668 0 11.356 2.888 22.37 8.402 32.164-14.716 93.775-9.977 188.232 14.1 280.878 2.455 32.216 65.050 48.076 119.506 55.821l55.861 52.513c35.669 33.529 93.709 33.529 129.379 0l55.926-52.579c54.259-7.745 116.618-23.604 119.073-55.755 24.038-92.501 28.803-186.801 14.165-280.418 5.724-9.938 8.717-21.11 8.717-32.623v0zM417.346 369.775c3.571-5.002 3.466-11.868-0.88-16.502-2.599-2.757-6.079-4.149-9.57-4.149-3.229 0-6.459 1.182-8.993 3.571l-88.707 83.39c-25.757 24.221-67.676 24.221-93.421 0l-88.721-83.39c-5.264-4.963-13.575-4.713-18.55 0.577-4.398 4.673-4.463 11.592-0.827 16.594-41.13-9.269-57.908-20.243-59.050-24.983 3.045-13.312 81.080-39.358 213.661-39.358 132.543 0 210.563 26.033 213.674 39.45-1.116 4.635-17.776 15.544-58.618 24.799v0zM482.449 315.898c-43.822-28.239-150.712-36.641-220.16-36.641-69.435 0-176.325 8.402-220.147 36.641-18.314-82.839-20.834-166.965-7.129-250.473 0.538-3.322-0.21-6.721-2.087-9.505-4.424-6.524-6.748-14.139-6.748-22.055 0-21.727 17.658-39.397 39.385-39.397 8.008 0 15.754 2.442 22.41 7.076 2.612 1.812 5.763 2.652 8.966 2.258 109.817-12.341 221.197-12.327 331.041 0.026 3.243 0.394 6.354-0.447 8.979-2.258 6.656-4.647 14.428-7.103 22.449-7.103 21.714 0 39.385 17.671 39.385 39.397 0 7.995-2.428 15.714-6.998 22.344-1.93 2.796-2.704 6.236-2.153 9.584 13.64 83.391 11.094 167.385-7.195 250.106v0zM275.613 349.112c-7.26 0-13.128 5.882-13.128 13.128 0 7.26 5.868 13.141 13.128 13.141 7.247 0 13.128-5.881 13.128-13.141 0-7.247-5.882-13.128-13.128-13.128v0zM249.357 401.651c-7.26 0-13.128 5.882-13.128 13.142 0 7.247 5.869 13.128 13.128 13.128 7.247 0 13.128-5.882 13.128-13.128 0-7.26-5.882-13.142-13.128-13.142v0zM223.101 362.24c-7.26 0-13.128 5.881-13.128 13.141s5.869 13.128 13.128 13.128c7.247 0 13.128-5.869 13.128-13.128s-5.881-13.141-13.128-13.141v0z" horiz-adv-x="525" />
<glyph unicode="&#xe629;" d="M179.161 224c0 7.065 5.721 12.8 12.787 12.8h255.859c7.065 0 12.787-5.734 12.787-12.8 0-77.645-63.13-140.8-140.723-140.8s-140.71 63.155-140.71 140.8v0zM434.304 211.2h-228.851c6.387-57.523 55.257-102.4 114.419-102.4 59.175 0 108.045 44.877 114.432 102.4v0zM511.769 32v-25.6c0-21.171-17.216-38.4-38.375-38.4h-434.957c-21.171 0-38.387 17.229-38.387 38.4v435.2c0 21.171 17.216 38.4 38.387 38.4h434.957c21.159 0 38.375-17.229 38.375-38.4v-25.6c0-21.171-17.216-38.4-38.375-38.4h-38.387v-25.6c0-7.066-5.721-12.8-12.787-12.8h-89.549v-51.2c0-7.065-5.721-12.8-12.8-12.8-7.065 0-12.787 5.735-12.787 12.8v51.2h-89.549c-7.066 0-12.8 5.735-12.8 12.8v25.6h-51.161v-307.2h319.821c21.159 0 38.375-17.229 38.375-38.4v0zM230.323 364.8h179.097v12.8h-179.097v-12.8zM140.774 44.8c-7.065 0-12.787 5.735-12.787 12.8v332.8c0 7.065 5.721 12.8 12.787 12.8h332.621c7.053 0 12.787 5.747 12.787 12.8v25.6c0 7.053-5.735 12.8-12.787 12.8h-434.957c-7.066 0-12.8-5.747-12.8-12.8v-435.2c0-7.053 5.735-12.8 12.8-12.8h434.957c7.053 0 12.787 5.747 12.787 12.8v25.6c0 7.053-5.735 12.8-12.787 12.8h-332.621z" />
<glyph unicode="&#xe62a;" d="M102.4 288.691v-54.042c15.693-5.005 27.328-18.739 28.262-35.507l9.92-179.29c0.73-13.274-3.981-25.984-13.248-35.789-9.664-10.202-23.424-16.064-37.773-16.064-14.336 0-28.109 5.863-37.773 16.064-9.267 9.805-13.977 22.515-13.248 35.789l9.92 179.29c0.922 16.793 12.608 30.553 28.339 35.533v54.016c-43.943 4.327-76.8 30.541-76.8 63.309v115.2c0 7.066 5.734 12.8 12.8 12.8 7.079 0 12.813-5.734 12.813-12.8v-115.2c0-20.813 29.299-38.4 63.987-38.4s64 17.587 64 38.4v115.2c0 7.066 5.734 12.8 12.8 12.8 7.078 0 12.8-5.734 12.8-12.8v-115.2c0-32.768-32.845-58.983-76.8-63.309v0zM74.022 197.735l-9.933-179.303c-0.333-6.17 1.907-12.122 6.297-16.768 9.703-10.253 28.647-10.253 38.336-0.013 4.403 4.659 6.643 10.611 6.311 16.781l-9.92 179.303c-0.422 7.552-7.245 13.466-15.552 13.466-8.294 0-15.117-5.913-15.539-13.466v0zM115.2 339.2c-7.066 0-12.8 5.734-12.8 12.8v115.2c0 7.065 5.734 12.8 12.8 12.8 7.079 0 12.8-5.734 12.8-12.8v-115.2c0-7.065-5.722-12.8-12.8-12.8v0zM64 339.2c-7.066 0-12.8 5.734-12.8 12.8v115.2c0 7.065 5.734 12.8 12.8 12.8 7.079 0 12.8-5.734 12.8-12.8v-115.2c0-7.065-5.722-12.8-12.8-12.8v0z" horiz-adv-x="179" />
<glyph unicode="&#xe62b;" d="M319.885 249.6c-7.079 0-12.8 5.734-12.8 12.8v153.6c0 21.171-17.229 38.4-38.4 38.4v-220.326c4.608 1.728 9.6 2.726 14.835 2.726 21.863 0 39.923-16.537 41.088-37.657l9.92-179.29c0.729-13.274-3.981-25.984-13.248-35.789-9.664-10.214-23.424-16.064-37.76-16.064-14.349 0-28.121 5.849-37.786 16.064-9.267 9.805-13.977 22.515-13.248 35.789 0 0 10.599 188.122 10.599 188.954v258.394c0 7.065 5.721 12.8 12.8 12.8h12.8c35.289 0 64-28.711 64-64v-153.6c0-7.065-5.721-12.8-12.8-12.8v0zM267.968 197.735l-9.933-179.303c-0.333-6.17 1.907-12.122 6.31-16.768 9.69-10.253 28.634-10.253 38.336-0.013 4.39 4.659 6.63 10.611 6.298 16.781l-9.92 179.289c-0.423 7.552-7.245 13.478-15.539 13.478-8.307 0-15.13-5.913-15.552-13.466v0zM115.085 288.691v-54.042c15.693-5.005 27.328-18.739 28.263-35.507l9.92-179.29c0.73-13.274-3.981-25.984-13.261-35.789-9.651-10.214-23.424-16.064-37.76-16.064s-28.109 5.849-37.773 16.064c-9.267 9.805-13.99 22.515-13.248 35.789l9.92 179.29c0.922 16.793 12.608 30.541 28.339 35.533v54.016c-43.943 4.327-76.8 30.541-76.8 63.309v115.2c0 7.066 5.735 12.8 12.8 12.8 7.079 0 12.8-5.734 12.8-12.8v-115.2c0-20.813 29.312-38.4 64-38.4s64 17.587 64 38.4v115.2c0 7.066 5.721 12.8 12.8 12.8s12.8-5.734 12.8-12.8v-115.2c0-32.768-32.857-58.983-76.8-63.309v0zM102.246 211.2c-8.294 0-15.117-5.913-15.552-13.466l-9.92-179.303c-0.333-6.17 1.907-12.122 6.297-16.768 9.703-10.253 28.647-10.253 38.336-0.013 4.403 4.659 6.643 10.611 6.297 16.781l-9.907 179.289c-0.422 7.552-7.245 13.478-15.552 13.478v0zM127.885 339.2c-7.066 0-12.8 5.734-12.8 12.8v115.2c0 7.065 5.734 12.8 12.8 12.8 7.079 0 12.8-5.734 12.8-12.8v-115.2c0-7.065-5.721-12.8-12.8-12.8v0zM76.685 339.2c-7.066 0-12.8 5.734-12.8 12.8v115.2c0 7.065 5.734 12.8 12.8 12.8 7.079 0 12.8-5.734 12.8-12.8v-115.2c0-7.065-5.722-12.8-12.8-12.8v0z" horiz-adv-x="346" />
<glyph unicode="&#xe62c;" d="M355.136 249.6h3.507c3.725 0 7.271-1.625 9.702-4.454 2.432-2.816 3.52-6.554 2.969-10.24l-38.451-256c-0.947-6.272-6.323-10.905-12.672-10.905h-256.333c-6.336 0-11.725 4.634-12.672 10.906l-38.451 256c-0.55 3.686 0.537 7.424 2.97 10.24 2.445 2.829 5.977 4.454 9.715 4.454h3.507l-28.8 168.627c-0.576 3.367 0.218 6.81 2.201 9.575 1.971 2.778 4.979 4.659 8.345 5.209l50.919 8.41c6.95 1.075 13.53-3.546 14.707-10.483l5.222-30.515c2.189 1.741 4.954 2.778 7.975 2.778h51.264c7.078 0 12.813-5.735 12.813-12.8v76.8c0 7.065 5.734 12.8 12.826 12.8h51.264c7.078 0 12.813-5.735 12.813-12.8v-51.981l45.146-2.675c3.405-0.192 6.579-1.741 8.832-4.301 2.265-2.547 3.405-5.888 3.187-9.293l-8.845-137.625 28.954 169.613c1.178 6.938 7.616 11.61 14.72 10.483l50.906-8.41c3.366-0.55 6.375-2.432 8.358-5.209 1.971-2.765 2.765-6.208 2.189-9.575l-28.787-168.627zM102.311 377.6v-100.083c0-6.656-5.094-12.199-11.737-12.762-6.553-0.486-12.595 4.058-13.709 10.611l-23.68 138.714-25.625-4.237 27.354-160.243h70.592c0.871 0 1.613-0.487 2.445-0.653v128.653h-25.639zM235.328 389.286l-4.877-75.815c-0.448-6.912-6.874-12.173-13.209-11.981-6.899 0.218-12.403 5.888-12.403 12.8v140.109h-25.625v-241.753c4.185-0.87 8.461-1.447 12.813-1.447 22.745 0 43.981 12.262 55.437 32.013 1.165 2.010 2.829 3.597 4.787 4.71l8.985 139.827-25.907 1.536zM265.575 224c-16.691-23.859-44.224-38.4-73.549-38.4s-56.857 14.541-73.536 38.4h-78.195l34.611-230.4h234.24l34.611 230.4h-78.183zM330.867 414.080l-28.070-164.48h26.342l27.353 160.243-25.625 4.237z" horiz-adv-x="384" />
<glyph unicode="&#xe62d;" d="M489.5 205.665c-12.315 11.139-19.096 25.738-19.096 41.057v23.178c0 40.877-28.382 76.178-66.062 84.231 4.594 8.967 13.824 15.166 24.548 15.166 7.652 0 13.838 6.2 13.838 13.838s-6.185 13.838-13.838 13.838c-25.904 0-47.533-17.962-53.538-42.026-40.005-5.909-71.002-40.392-71.002-82.072v-26.222c0-15.221-6.628-29.876-18.211-40.185-32.021-28.548-50.605-69.439-50.978-112.197-0.54-60.043 44.765-112.557 105.375-122.161 15.955-2.533 31.702-3.819 46.841-3.819h0.014c42.815 0 79.443 10.157 105.942 29.35 30.25 21.906 46.26 54.839 46.26 95.26 0 42.842-18.266 83.94-50.093 112.764v0zM477.101 20.044c-21.739-15.748-52.764-24.078-89.711-24.078h-0.014c-13.685 0-27.98 1.176-42.51 3.474-47.173 7.473-82.446 48.142-82.031 94.582 0.318 34.982 15.512 68.428 41.707 91.786 17.464 15.553 27.482 37.736 27.482 60.845v26.222c0 30 23.995 54.369 53.774 55.227 0.539-0.069 1.010-0.318 1.577-0.318 0.678 0 1.259 0.291 1.923 0.387 1.176-0.041 2.353-0.055 3.557-0.166 27.966-2.671 49.871-28.188 49.871-58.105v-23.178c0-22.901 10.281-45.346 28.202-61.579 26.043-23.579 40.988-57.205 40.988-92.243 0-31.62-11.721-56.127-34.816-72.856v0zM182.341 369.477c4.082 0 8.192 0.277 12.315 0.844 6.117 0.858 10.946 5.673 11.79 11.803 3.778 27.122-5.010 53.635-24.106 72.731-19.11 19.096-45.679 27.938-72.718 24.106-6.13-0.858-10.945-5.673-11.79-11.803-3.791-27.109 5.010-53.622 24.106-72.718 16.19-16.19 37.695-24.964 60.402-24.964v0zM162.774 435.29c10.254-10.268 16.094-23.718 16.786-38.068-14.35 0.692-27.8 6.546-38.054 16.786-10.254 10.267-16.107 23.718-16.785 38.054 14.336-0.678 27.8-6.531 38.054-16.772v0zM203.596 81.221c-5.839 1.605-11.527 3.986-16.923 7.071-4.262 2.435-9.451 2.435-13.727 0-5.383-3.086-11.071-5.466-16.882-7.071-20.037-5.507-41.347-2.283-61.606 9.423-29.323 16.923-51.878 48.654-61.883 87.067-17.547 67.363 9.507 133.549 60.292 147.539 25.489 7.016 53.926-0.678 77.976-21.172 5.161-4.414 12.786-4.414 17.947 0 24.036 20.494 52.487 28.202 77.963 21.172 7.361-2.048 14.986 2.311 17.021 9.673 2.021 7.361-2.297 14.986-9.659 17.006-31.246 8.607-65.079 1.412-94.305-19.733-29.226 21.144-63.059 28.34-94.291 19.733-65.301-17.989-101.072-99.272-79.734-181.192 11.873-45.526 39.147-83.456 74.835-104.075 17.948-10.365 37.307-15.664 56.334-15.664 8.939 0 17.837 1.176 26.472 3.543 5.59 1.55 11.084 3.611 16.384 6.13 5.314-2.533 10.821-4.58 16.411-6.13 7.403-2.034 15 2.269 17.020 9.659 2.048 7.361-2.283 14.986-9.645 17.021v0z" horiz-adv-x="540" />
<glyph unicode="&#xe62e;" d="M195.674-32c-2.454 0-4.894 0.587-7.108 1.777-4.894 2.62-7.951 7.725-7.951 13.282v205.719l-171.415 223.503c-9.954 12.333-11.927 29.244-4.939 43.866 7.032 14.713 21.579 23.853 37.948 23.853h397.176c16.369 0 30.916-9.14 37.964-23.853 6.972-14.607 5.014-31.518-5.165-44.152l-171.099-223.217v-145.483c0-5.045-2.515-9.743-6.716-12.529l-90.353-60.236c-2.515-1.671-5.421-2.53-8.343-2.53v0zM42.21 449.882c-6.822 0-9.803-4.714-10.782-6.731-0.933-1.973-2.695-7.123 1.445-12.243l174.743-227.87c2.018-2.62 3.117-5.843 3.117-9.156v-182.679l60.236 40.147v142.532c0 3.313 1.084 6.521 3.102 9.156l174.441 227.569c4.367 5.421 2.605 10.571 1.656 12.544-0.964 2.018-3.961 6.731-10.782 6.731h-397.176z" horiz-adv-x="482" />
<glyph unicode="&#xe62f;" d="M350.235 133.673c0 55.013-25.587 105.499-70.198 138.55-18.486 13.69-37.591 39.707-37.591 59.567v134.737c0 4.419-2.183 8.556-5.807 11.075s-8.232 3.099-12.41 1.536l-107.79-40.408c-5.255-1.981-8.731-7.006-8.731-12.625v-94.316c0-19.86-19.119-45.878-37.591-59.567-44.625-33.051-70.198-83.537-70.198-138.55 0-70.804 42.927-111.764 127.461-122.368-10.564-4.998-20.48-11.654-29.238-20.17-5.335-5.188-5.457-13.716-0.269-19.052 5.201-5.336 13.73-5.457 19.052-0.269 32.054 31.164 84.237 31.164 116.292 0 2.614-2.546 6.010-3.813 9.391-3.813 3.517 0 7.020 1.361 9.661 4.082 5.187 5.336 5.066 13.865-0.256 19.052-8.758 8.515-18.688 15.171-29.251 20.17 84.534 10.604 127.475 51.564 127.475 122.368v0zM260.204 46.687c14.632 19.254 22.663 45.164 22.663 76.261 0 7.438-6.036 13.474-13.474 13.474-7.451 0-13.474-6.036-13.474-13.474 0-55.66-29.467-87.579-80.842-87.579-51.388 0-80.842 31.919-80.842 87.579 0 7.438-6.036 13.474-13.474 13.474-7.451 0-13.474-6.036-13.474-13.474 0-31.098 8.017-57.007 22.65-76.261-42.604 14.43-63.071 42.927-63.071 86.986 0 46.39 21.599 88.993 59.27 116.884 23.364 17.313 48.519 50.108 48.519 81.233v84.978l80.842 30.316v-115.295c0-31.124 25.142-63.919 48.505-81.233 37.673-27.89 59.284-70.495 59.284-116.884 0-44.059-20.48-72.556-63.084-86.986v0z" horiz-adv-x="351" />
<glyph unicode="&#xe630;" d="M229.228 250.947c7.451 0 13.487 6.036 13.487 13.474s-6.036 13.474-13.487 13.474h-26.947v26.947c0 7.438-6.036 13.474-13.487 13.474s-13.474-6.036-13.474-13.474v-26.947h-53.922v26.947c0 7.438-6.022 13.474-13.474 13.474s-13.487-6.036-13.487-13.474v-26.947h-26.961c-7.451 0-13.474-6.036-13.474-13.474s6.023-13.474 13.474-13.474h26.961v-53.894h-26.961c-7.451 0-13.474-6.036-13.474-13.474s6.023-13.474 13.474-13.474h26.961v-26.947c0-7.438 6.036-13.474 13.487-13.474s13.474 6.036 13.474 13.474v26.947h53.922v-26.947c0-7.438 6.023-13.474 13.474-13.474s13.487 6.036 13.487 13.474v26.947h26.947c7.451 0 13.487 6.036 13.487 13.474s-6.036 13.474-13.487 13.474h-26.947v53.894h26.947zM121.398 250.947h53.922v-53.894h-53.922v53.894zM394.226 268.005c-15.010 15.036-34.964 23.323-56.199 23.323-14.834 0-29.050-4.055-41.391-11.614v52.076c0 81.718-66.519 148.211-148.278 148.211s-148.278-66.493-148.278-148.211v-309.894c0-37.026 76.868-53.894 148.278-53.894s148.278 16.869 148.278 53.894v34.884l97.59 98.749c30.949 31.003 30.949 81.476 0 112.478v0zM375.094 174.511l-101.524-102.724c-2.506-2.533-3.894-5.928-3.894-9.472l0.027-40.219c-2.075-7.478-42.496-27.149-121.344-27.149s-119.269 19.671-121.317 26.947v309.894c0 66.856 54.42 121.263 121.317 121.263s121.317-54.406 121.317-121.263v-81.529c0-5.457 3.288-10.375 8.327-12.463 5.012-2.061 10.833-0.916 14.7 2.951l8.206 8.219c19.82 19.86 54.406 19.86 74.226 0.013 20.493-20.52 20.493-53.908-0.041-74.469v0z" horiz-adv-x="418" />
<glyph unicode="&#xe631;" d="M306.346 167.964c4.053-8.946 6.457-18.788 6.457-29.226 0-36.537-27.833-66.389-63.346-70.315 4.053-8.932 6.457-18.788 6.457-29.226 0-39.197-31.915-71.097-71.111-71.097-39.21 0-71.111 31.901-71.111 71.097 0 10.439 2.389 20.295 6.442 29.226-35.513 3.925-63.331 33.778-63.331 70.315 0 10.439 2.389 20.281 6.443 29.226-35.513 3.925-63.331 33.764-63.331 70.315 0 39.197 31.901 71.097 71.111 71.097 23.338 0 43.904-11.463 56.889-28.885 12.97 17.422 33.536 28.885 56.889 28.885 23.339 0 43.904-11.463 56.889-28.885 12.97 17.422 33.536 28.885 56.889 28.885 39.197 0 71.111-31.9 71.111-71.097 0-36.551-27.833-66.389-63.346-70.315v0zM184.804-3.456c23.523 0 42.667 19.129 42.667 42.653s-19.143 42.666-42.666 42.666c-23.538 0-42.666-19.143-42.666-42.666s19.129-42.653 42.666-42.653v0zM71.026 280.932c-23.538 0-42.666-19.129-42.666-42.653s19.129-42.666 42.666-42.666c23.523 0 42.666 19.143 42.666 42.666s-19.143 42.653-42.666 42.653v0zM85.248 138.738c0-23.524 19.129-42.652 42.666-42.652 23.523 0 42.667 19.129 42.667 42.653s-19.143 42.653-42.666 42.653c-23.538 0-42.666-19.129-42.666-42.653v0zM184.804 280.932c-23.538 0-42.667-19.129-42.667-42.653s19.129-42.666 42.666-42.666c23.524 0 42.666 19.143 42.666 42.666s-19.143 42.653-42.666 42.653v0zM241.692 181.39c-23.538 0-42.666-19.129-42.666-42.653s19.129-42.653 42.666-42.653c23.524 0 42.666 19.129 42.666 42.653s-19.143 42.653-42.666 42.653v0zM298.582 280.932c-23.538 0-42.666-19.129-42.666-42.653s19.129-42.666 42.666-42.666c23.524 0 42.666 19.143 42.666 42.666s-19.143 42.653-42.666 42.653v0zM227.47 451.57v0c7.851 0 14.222 6.372 14.222 14.222s-6.371 14.222-14.222 14.222c-31.545 0-58.041-20.779-67.328-49.252-16.81 12.999-37.831 20.807-60.672 20.807-7.865 0-14.222-6.372-14.222-14.222s6.358-14.222 14.222-14.222c39.196 0 71.111-31.886 71.111-71.097 0-7.851 6.357-14.208 14.222-14.208 7.851 0 14.222 6.357 14.222 14.208 0 19.271-5.603 37.219-15.118 52.48 0.47 1.408 0.896 2.844 0.896 4.409 0 23.524 19.129 42.652 42.667 42.652z" horiz-adv-x="370" />
<glyph unicode="&#xe632;" d="M134.022 150.808c-6.742 0-12.191-5.462-12.191-12.202v-158.562c0-6.741 5.449-12.202 12.191-12.202 6.729 0 12.19 5.462 12.19 12.202v158.562c0 6.741-5.462 12.202-12.19 12.202v0zM194.596 178.164c-1.353 5.425-6.217 9.24-11.813 9.24h-97.524c-5.596 0-10.472-3.815-11.825-9.24l-48.762-195.158c-1.645-6.546 2.328-13.166 8.862-14.799 6.522-1.634 13.142 2.353 14.775 8.875l46.47 185.929h78.47l46.47-185.929c1.377-5.534 6.339-9.24 11.8-9.24 0.988 0 1.987 0.11 2.975 0.365 6.534 1.634 10.508 8.253 8.863 14.799l-48.762 195.158zM97.451 443.55h73.143c6.729 0 12.19 5.462 12.19 12.19 0 6.742-5.462 12.202-12.19 12.202h-73.143c-6.742 0-12.191-5.462-12.191-12.202 0-6.729 5.449-12.19 12.191-12.19v0zM12.117 358.168c6.729 0 12.191 5.462 12.191 12.19 0 20.188 16.396 36.596 36.572 36.596h146.286c20.163 0 36.572-16.409 36.572-36.596 0-6.729 5.449-12.19 12.19-12.19 6.729 0 12.19 5.462 12.19 12.19 0 33.633-27.356 61.001-60.952 61.001h-146.286c-33.609 0-60.953-27.368-60.953-61.001 0-6.729 5.449-12.19 12.191-12.19v0zM255.927 345.966h-243.81c-6.742 0-12.191-5.462-12.191-12.191 0-73.984 60.148-134.18 134.095-134.18 73.935 0 134.095 60.197 134.095 134.18 0 6.729-5.462 12.19-12.19 12.19v0zM134.022 224c-56.381 0-102.961 42.764-109.044 97.572h218.075c-6.083-54.808-52.65-97.572-109.031-97.572v0z" horiz-adv-x="268" />
<glyph unicode="&#xe633;" d="M622.062 210.908c-20.499 151.936-151.332 269.092-309.668 269.092-165.906 0-301.623-128.64-311.844-291.145-0.658-10.606 7.515-19.712 18.212-19.712h0.311c9.819 0 17.555 7.772 18.212 17.517 9.051 133.212 120.54 238.483 256.731 238.483 130.944 0 239.031-97.299 255.232-223.177 2.377-18.579 17.609-32.823 36.425-32.823 22.345 0 39.369 19.731 36.389 41.764v0zM293.029 370.286c-110.903 0-201.143-90.24-201.143-201.143s90.24-201.143 201.143-201.143c110.903 0 201.143 90.24 201.143 201.143s-90.24 201.143-201.143 201.143v0zM293.029 4.572c-90.733 0-164.571 73.837-164.571 164.572s73.838 164.572 164.571 164.572c38.803 0 74.441-13.568 102.601-36.115l-115.529-115.529c-7.149-7.149-7.149-18.707 0-25.856 3.565-3.565 8.247-5.358 12.928-5.358s9.363 1.792 12.928 5.358l115.529 115.529c22.528-28.178 36.115-63.799 36.115-102.601 0-90.733-73.837-164.572-164.572-164.572v0z" horiz-adv-x="622" />
<glyph unicode="&#xe634;" d="M442.243 185.835l-44.392-166.483c-8.053-30.236-35.55-51.352-66.851-51.352h-219.371c-31.301 0-58.797 21.116-66.85 51.352l-44.392 166.483c-1.107 4.151-0.235 8.594 2.394 11.998 2.615 3.404 6.67 5.411 10.973 5.411h415.135c4.289 0 8.344-2.007 10.974-5.411 2.615-3.404 3.487-7.846 2.38-11.998v0zM31.758 175.567l39.743-149.075c4.843-18.155 21.338-30.817 40.129-30.817h219.371c18.792 0 35.286 12.661 40.13 30.817l39.743 149.075h-379.115zM415.052 230.919c-7.652 0-13.838 6.2-13.838 13.838 0 38.151-31.052 69.189-69.189 69.189-24.12 0-46.108-12.247-58.825-32.754-4.027-6.476-12.565-8.496-19.054-4.456-6.49 4.027-8.496 12.565-4.47 19.055 17.81 28.7 48.584 45.831 82.349 45.831 53.4 0 96.865-43.451 96.865-96.865 0-7.638-6.2-13.838-13.838-13.838v0zM282.305 351.391c-16.204 11.707-35.563 17.906-55.974 17.906-28.381 0-54.77-12.108-72.427-33.239-2.906-3.459-7.32-5.245-11.776-4.913-2.823 0.235-5.66 0.402-8.538 0.402-50.827 0-92.16-38.94-92.16-86.791 0-7.638-6.2-13.838-13.838-13.838-7.652 0-13.838 6.2-13.838 13.838 0 63.128 53.746 114.466 119.836 114.466 1.273 0 2.56-0.014 3.833-0.069 11.998 12.717 26.61 22.431 42.703 28.88-8.704 9.784-14.156 22.514-14.156 36.615 0 30.526 24.811 55.352 55.351 55.352 30.526 0 55.351-24.825 55.351-55.352 0-12.758-4.525-24.382-11.803-33.764 11.969-3.889 23.303-9.604 33.654-17.076 6.185-4.483 7.57-13.132 3.099-19.332-4.498-6.185-13.16-7.57-19.317-3.086v0zM221.322 452.325c-15.263 0-27.675-12.413-27.675-27.675s12.412-27.675 27.675-27.675c15.25 0 27.675 12.412 27.675 27.675s-12.427 27.675-27.675 27.675v0z" horiz-adv-x="443" />
<glyph unicode="&#xe635;" d="M331.942 383.121c7.639 0 13.824-6.199 13.824-13.838v-345.863c0-30.512-24.811-55.337-55.337-55.337h-138.351c-30.513 0-55.338 24.825-55.338 55.337v236.142c-54.507 6.85-96.837 53.387-96.837 109.72 0 61.025 49.65 110.675 110.675 110.675 56.334 0 102.87-42.33 109.72-96.837h28.631v41.5c0 4.857 2.546 9.368 6.712 11.859l69.175 41.513c6.573 3.93 15.055 1.799 18.986-4.746 3.93-6.559 1.813-15.055-4.747-18.986l-62.464-37.473v-33.668h55.351zM124.416 23.421c0-15.263 12.412-27.662 27.662-27.662h138.35c15.25 0 27.675 12.399 27.675 27.662v193.688h-193.688v-193.688zM110.578 452.296c-45.775 0-83.013-37.238-83.013-83.013 0-41.043 29.986-75.139 69.175-81.754v81.754c0 7.638 6.186 13.838 13.838 13.838h81.768c-6.629 39.189-40.711 69.175-81.768 69.175v0zM262.767 258.608c-7.653 0-13.838 6.2-13.838 13.838v82.999h-124.513v-110.675h193.688v110.675h-41.514v-82.999c0-7.639-6.185-13.838-13.824-13.838v0z" horiz-adv-x="346" />
<glyph unicode="&#xe636;" d="M314.998-31.803h-236.308c-36.194 0-65.641 29.433-65.641 65.615v78.743c0 7.26 5.869 13.128 13.128 13.128h341.333c7.247 0 13.128-5.868 13.128-13.128v-78.743c0-36.182-29.459-65.615-65.641-65.615v0zM354.383 99.44h-315.077v-65.628c0-21.714 17.657-39.371 39.385-39.371h236.308c21.714 0 39.385 17.658 39.385 39.371v65.628zM223.101 243.81v39.372c0 7.247 5.869 13.128 13.128 13.128 7.247 0 13.128-5.882 13.128-13.128v-39.371c0-7.247-5.881-13.128-13.128-13.128-7.26 0-13.128 5.881-13.128 13.128v0zM362.798 141.87c-2.455-2.061-5.448-3.059-8.402-3.059-3.768 0-7.496 1.601-10.096 4.713l-27.911 33.372c-0.433 0.525-0.827 1.089-1.182 1.668-4.713 7.864-13.339 12.748-22.515 12.748h-191.711c-9.163 0-17.802-4.884-22.515-12.748-0.341-0.577-0.749-1.142-1.181-1.668l-27.91-33.372c-4.648-5.567-12.905-6.328-18.497-1.654-5.567 4.647-6.302 12.918-1.654 18.485l27.306 32.65c9.544 15.176 26.48 24.55 44.452 24.55h82.734v182.43c0 44.15 35.328 80.069 78.769 80.069 43.428 0 78.769-35.919 78.769-80.069v-38.059c0-7.247-5.882-13.128-13.128-13.128-7.26 0-13.128 5.882-13.128 13.128v38.059c0 29.683-23.552 53.813-52.513 53.813-28.974 0-52.513-24.13-52.513-53.813v-182.43h82.721c17.973 0 34.908-9.373 44.452-24.55l27.307-32.65c4.647-5.567 3.912-13.837-1.654-18.485v0zM157.459 230.683c-7.26 0-13.128 5.881-13.128 13.128v39.372c0 7.247 5.869 13.128 13.128 13.128 7.247 0 13.128-5.882 13.128-13.128v-39.371c0-7.247-5.881-13.128-13.128-13.128v0z" horiz-adv-x="381" />
<glyph unicode="&#xe637;" d="M146.213 138.666h-109.958v-121.905c0-13.446 10.947-24.381 24.381-24.381 13.446 0 24.381 10.935 24.381 24.381v85.334c0 6.729 5.449 12.19 12.191 12.19s12.191-5.462 12.191-12.19v-85.334c0-26.892-21.87-48.762-48.762-48.762s-48.762 21.87-48.762 48.762v451.048c0 6.729 5.462 12.19 12.191 12.19 74.862 0 133.571-143.299 134.095-326.692 0-5.315-2.157-14.641-11.947-14.641v0zM36.255 453.498v-290.45h97.439c-2.268 161.817-49.493 273.908-97.439 290.45v0z" horiz-adv-x="159" />
<glyph unicode="&#xe638;" d="M197.632 293.818c-19.293 0-34.909-15.639-34.909-34.909 0-19.293 15.616-34.909 34.909-34.909s34.933 15.616 34.933 34.909c0 19.27-15.639 34.909-34.933 34.909v0zM337.338 247.273c-19.293 0-34.933-15.639-34.933-34.909 0-19.293 15.639-34.909 34.933-34.909s34.909 15.616 34.909 34.909c0 19.27-15.616 34.909-34.909 34.909v0zM360.611 386.909c-19.293 0-34.933-15.639-34.933-34.909s15.639-34.909 34.933-34.909c19.293 0 34.933 15.639 34.933 34.909s-15.639 34.909-34.933 34.909v0zM652.056 355.63c-58.624 76.917-164.911 124.37-279.808 124.37-121.81 0-231.377-52.061-287.976-136.308-52.317-25.135-84.526-70.447-84.526-119.692s32.209-94.557 84.526-119.692c56.6-84.248 166.167-136.308 287.976-136.308 114.897 0 221.184 47.453 279.808 124.37 69.749 19.642 115.991 71.68 115.991 131.631s-46.243 111.965-115.991 131.631v0zM632.808 135.447c-5.515-1.303-10.356-4.562-13.615-9.169-48.826-68.934-143.453-111.733-246.947-111.733-107.147 0-206.243 47.313-252.463 120.553-2.49 3.957-6.12 7.051-10.403 8.913-38.912 16.896-63.093 47.546-63.093 79.988s24.18 63.092 63.093 79.988c4.282 1.862 7.912 4.957 10.403 8.913 46.22 73.24 145.315 120.553 252.463 120.553 103.494 0 198.12-42.799 246.947-111.733 3.258-4.608 8.099-7.866 13.615-9.169 52.201-12.428 88.692-48.85 88.692-88.553s-36.491-76.125-88.692-88.553v0z" horiz-adv-x="768" />
<glyph unicode="&#xe639;" d="M378.381 233.413c1.418-7.575 2.14-15.137 2.14-22.541 0-34.986-14.638-68.123-40.33-91.753-5.842-44.767-40.921-79.255-85.281-84.677l-5.711-28.527c-0.998-21.373-23.684-37.914-52.474-37.914-28.803 0-51.489 16.541-52.474 37.914l-5.711 28.527c-44.374 5.422-79.439 39.909-85.294 84.677-25.692 23.631-40.316 56.767-40.316 91.753 0 7.404 0.722 14.966 2.127 22.541-10.004 17.066-15.255 36.392-15.255 56.228 0 43.245 24.707 82.156 63.409 100.654 22.095 53.878 75.041 89.705 133.514 89.705 58.46 0 111.406-35.813 133.514-89.705 38.702-18.498 63.396-57.41 63.396-100.654 0-19.837-5.252-39.161-15.255-56.228v0zM314.893 368.411c-3.387 1.404-6.026 4.175-7.286 7.614-16.962 46.487-61.519 77.719-110.881 77.719-49.375 0-93.933-31.232-110.881-77.719-1.26-3.439-3.899-6.209-7.286-7.614-31.889-13.312-52.499-44.229-52.499-78.769 0-16.581 4.805-32.689 13.903-46.592 1.943-2.98 2.599-6.643 1.798-10.122-1.706-7.457-2.573-14.875-2.573-22.055 0-29.026 12.773-56.464 35.053-75.264 2.692-2.271 4.359-5.527 4.621-9.046 2.835-37.389 33.28-66.022 70.801-66.6 6.184-0.092 11.461-4.49 12.668-10.555l7.877-39.45c0.171-0.853 0.262-1.707 0.262-2.573 0-5.356 10.227-13.128 26.256-13.128 16.017 0 26.256 7.772 26.256 13.128 0 0.866 0.092 1.733 0.25 2.573l7.903 39.45c1.221 6.065 6.486 10.463 12.655 10.555 37.52 0.577 67.952 29.211 70.788 66.6 0.276 3.519 1.943 6.774 4.635 9.046 22.265 18.8 35.039 46.238 35.039 75.264 0 7.181-0.866 14.599-2.573 22.055-0.788 3.479-0.132 7.142 1.812 10.122 9.084 13.903 13.903 30.011 13.903 46.592 0 34.541-20.625 65.457-52.5 78.769v0zM258.521 221.283c-2.573-2.56-5.921-3.846-9.281-3.846s-6.721 1.286-9.281 3.846c-5.133 5.133-5.133 13.43 0 18.564l52.513 52.513c5.12 5.133 13.43 5.133 18.563 0 5.12-5.133 5.12-13.43 0-18.563l-52.513-52.513zM196.726 86.154c-7.26 0-13.128 5.882-13.128 13.128v262.564c0 7.247 5.869 13.128 13.128 13.128 7.247 0 13.128-5.882 13.128-13.128v-262.564c0-7.247-5.881-13.128-13.128-13.128v0zM144.214 217.436c-3.361 0-6.721 1.286-9.281 3.846l-52.513 52.513c-5.133 5.133-5.133 13.43 0 18.564s13.43 5.133 18.564 0l52.513-52.513c5.133-5.133 5.133-13.43 0-18.564-2.56-2.56-5.921-3.846-9.281-3.846v0z" horiz-adv-x="394" />
<glyph unicode="&#xe63a;" d="M622.007 210.908c-20.516 151.936-151.332 269.092-309.668 269.092-165.924 0-301.623-128.64-311.844-291.145-0.676-10.606 7.497-19.712 18.195-19.712h0.311c9.838 0 17.555 7.772 18.231 17.517 9.052 133.212 120.521 238.483 256.731 238.483 130.925 0 239.031-97.299 255.214-223.177 2.395-18.579 17.609-32.823 36.425-32.823 22.364 0 39.369 19.731 36.407 41.764v0zM292.974 370.286c-110.921 0-201.143-90.24-201.143-201.143s90.222-201.143 201.143-201.143c110.903 0 201.125 90.24 201.125 201.143s-90.221 201.143-201.125 201.143v0zM292.974 4.572c-90.752 0-164.571 73.837-164.571 164.572 0 38.803 13.568 74.423 36.114 102.601l115.529-115.529c3.565-3.565 8.247-5.358 12.928-5.358 4.663 0 9.344 1.792 12.928 5.358 7.132 7.149 7.132 18.707 0 25.856l-115.529 115.529c28.16 22.547 63.799 36.115 102.601 36.115 90.733 0 164.553-73.838 164.553-164.572s-73.82-164.572-164.553-164.572v0z" horiz-adv-x="622" />
<glyph unicode="&#xe63b;" d="M501.248 75.83c-42.9-58.664-116.938-95.124-193.267-95.124-75.062 0-140.476 34.438-184.212 96.983-3.988 5.713-2.964 13.527 2.371 18.014l17.516 14.753c-64.499 14.579-110.862 49.26-131.813 99.503-19.604 47.010-15.077 96.66 13.096 143.562 39.411 65.577 121.978 118.258 196.339 125.265 115.631 10.806 166.279-55.296 199.788-99.072 24.589-32.094 44.221-81.825 34.304-133.066 19.456 5.888 38.44 11.668 55.983 17.044 7.033 2.156 14.551-1.751 16.788-8.785 20.372-63.865 10.819-127.461-26.894-179.078v0zM399.683 363.345c-31.704 41.404-75.089 98.102-175.872 88.616-65.442-6.158-141.002-54.433-175.764-112.317-16.451-27.379-31.771-70.305-11.331-119.323 26.099-62.572 93.454-81.637 133.551-87.457l50.553 42.577c1.428 1.199 3.085 2.089 4.864 2.614 1.307 0.39 101.551 29.979 199.276 59.419 15.683 47.481-3.207 97.037-25.276 125.871v0zM506.125 233.917c-104.812-32.027-248.657-74.55-270.107-80.896l-82.836-69.767c38.319-48.869 92.847-75.601 154.799-75.601 67.88 0 133.591 32.216 171.506 84.076 21.585 29.548 42.886 77.595 26.637 142.188v0zM431.077 399.185c-7.451 0-13.474 6.036-13.474 13.474s6.022 13.474 13.474 13.474c22.286 0 40.421 18.122 40.421 40.407 0 7.438 6.022 13.474 13.474 13.474 7.438 0 13.474-6.036 13.474-13.474 0-37.133-30.235-67.355-67.368-67.355v0z" horiz-adv-x="539" />
<glyph unicode="&#xe63c;" d="M201.604 355.724h93.091c8.565 0 15.515-6.935 15.515-15.515 0-8.565-6.951-15.515-15.515-15.515h-93.091c-8.58 0-15.515 6.951-15.515 15.515 0 8.58 6.935 15.515 15.515 15.515v0zM201.604 293.663h93.091c8.565 0 15.515-6.935 15.515-15.515 0-8.565-6.951-15.515-15.515-15.515h-93.091c-8.58 0-15.515 6.951-15.515 15.515 0 8.58 6.935 15.515 15.515 15.515v0zM201.604 169.558h93.091c8.565 0 15.515-6.951 15.515-15.515 0-8.58-6.951-15.515-15.515-15.515h-93.091c-8.58 0-15.515 6.935-15.515 15.515 0 8.565 6.935 15.515 15.515 15.515v0zM201.604 231.602h93.091c8.565 0 15.515-6.935 15.515-15.499 0-8.58-6.951-15.515-15.515-15.515h-93.091c-8.58 0-15.515 6.935-15.515 15.515 0 8.565 6.935 15.5 15.515 15.5v0zM491.8 432.911l-73.371-127.861v-244.1c0-42.062-36.445-77.576-79.593-77.576h-184.274c-42.418 0-76.939 34.8-76.939 77.576l-0.171 341.318c0 8.565 6.936 15.515 15.499 15.515h0.016c8.549 0 15.515-6.935 15.515-15.5l0.171-341.333c0-25.662 20.588-46.546 45.909-46.546h184.274c25.864 0 48.563 21.752 48.563 46.546v248.227c0 2.715 0.714 5.384 2.063 7.726l75.528 131.646-387.522 0.264c-17.097 0-30.984-13.917-30.984-31.031v-186.182c0-8.564-6.951-15.499-15.515-15.499-8.58 0-15.515 6.935-15.515 15.5v186.182c0 34.227 27.803 62.061 62.014 62.061h387.817c11.202 0 21.224-5.834 26.779-15.608 5.539-9.713 5.43-21.721-0.264-31.325v0z" horiz-adv-x="497" />
<glyph unicode="&#xe63d;" d="M648.431-14.678c0-9.421-7.646-17.067-17.067-17.067h-102.4c-9.438 0-17.067 7.646-17.067 17.067h-307.2c0-9.421-7.646-17.067-17.066-17.067h-102.4c-9.438 0-17.067 7.646-17.067 17.067-28.245 0-51.2 22.954-51.2 51.183v375.416c0 28.245 22.954 51.2 51.2 51.2h580.266c28.229 0 51.2-22.954 51.2-51.2v-375.416c0-28.228-22.971-51.183-51.2-51.183v0zM665.497 411.921c0 9.421-7.663 17.067-17.067 17.067h-580.266c-9.421 0-17.067-7.646-17.067-17.067v-375.416c0-9.404 7.646-17.067 17.067-17.067h580.266c9.404 0 17.067 7.663 17.067 17.067v375.416zM631.365 121.839h-68.266c-9.438 0-17.067 7.629-17.067 17.067 0 9.421 7.629 17.050 17.067 17.050h68.266c9.421 0 17.067-7.629 17.067-17.050 0-9.438-7.646-17.067-17.067-17.067v0zM631.365 173.022h-68.266c-9.438 0-17.067 7.646-17.067 17.067s7.629 17.067 17.067 17.067h68.266c9.421 0 17.067-7.646 17.067-17.067s-7.646-17.067-17.067-17.067v0zM597.231 258.355c-18.859 0-34.134 15.274-34.134 34.116 0 18.858 15.274 34.134 34.134 34.134 18.841 0 34.134-15.274 34.134-34.134 0-18.841-15.292-34.116-34.134-34.116v0zM511.897 53.572h-409.6c-9.438 0-17.067 7.646-17.067 17.067v307.166c0 9.421 7.629 17.067 17.067 17.067h409.6c9.421 0 17.066-7.646 17.066-17.067v-307.166c0-9.421-7.646-17.067-17.067-17.067v0zM119.365 87.705h375.466v273.033h-375.466v-273.033z" horiz-adv-x="700" />
<glyph unicode="&#xe63e;" d="M621.933 210.908c-20.499 151.936-151.332 269.092-309.668 269.092-165.906 0-301.623-128.64-311.844-291.145-0.658-10.606 7.516-19.712 18.212-19.712h0.311c9.819 0 17.555 7.772 18.212 17.517 9.051 133.212 120.54 238.483 256.731 238.483 130.944 0 239.049-97.299 255.232-223.177 2.395-18.579 17.609-32.823 36.425-32.823 22.345 0 39.369 19.731 36.389 41.764v0zM292.901 370.286c-110.903 0-201.143-90.24-201.143-201.143s90.24-201.143 201.143-201.143c110.903 0 201.143 90.24 201.143 201.143s-90.24 201.143-201.143 201.143v0zM292.901 4.572c-90.752 0-164.571 73.837-164.571 164.572 0 84.553 64.128 154.35 146.285 163.493v-163.493c0-10.094 8.173-18.286 18.286-18.286s18.286 8.192 18.286 18.286v163.493c82.158-9.143 146.286-78.94 146.286-163.493 0-90.733-73.82-164.572-164.571-164.572v0z" horiz-adv-x="622" />
<glyph unicode="&#xe63f;" d="M383.156 337.567l-65.093 65.135v35.784c0 22.888-18.612 41.514-41.486 41.514h-165.944c-22.874 0-41.472-18.625-41.472-41.514v-35.784l-65.093-65.121c-1.273-1.287-2.283-2.809-2.989-4.511-0.692-1.688-1.065-3.487-1.065-5.286v-345.946c0-7.639 6.186-13.838 13.824-13.838h359.534c7.639 0 13.824 6.2 13.824 13.838v345.946c0 3.667-1.453 7.182-4.041 9.784v0zM229.362 341.621h-182.133l41.486 41.514h182.133l-41.486-41.514zM96.809 438.486c0 7.625 6.2 13.838 13.824 13.838h165.944c7.625 0 13.824-6.213 13.824-13.838v-27.675h-193.591v27.675zM27.675 313.946h193.591v-318.271h-193.591v318.271zM359.548-4.325h-110.633v326.379l55.323 55.351 55.31-55.351v-326.379zM149.531 234.088c-13.589 13.547-37.237 13.547-50.827 0l-23.455-23.372c-13.090-13.022-20.3-30.36-20.3-48.792s7.209-35.757 20.3-48.779c13.049-13.022 30.401-20.175 48.861-20.175s35.813 7.154 48.875 20.161c13.090 13.035 20.3 30.36 20.3 48.792s-7.209 35.771-20.286 48.779l-23.469 23.386zM153.489 132.753c-15.692-15.623-43.049-15.637-58.742 0-7.819 7.791-12.15 18.155-12.15 29.17s4.331 21.38 12.163 29.184l23.469 23.386c1.564 1.563 3.653 2.421 5.881 2.421s4.331-0.858 5.895-2.421l23.483-23.4c7.819-7.791 12.136-18.155 12.136-29.17s-4.317-21.38-12.136-29.17v0z" horiz-adv-x="388" />
</font>
</defs>
</svg>
